<?xml version="1.0" encoding="utf-8"?>
<!-- Generator: Adobe Illustrator 24.2.3, SVG Export Plug-In . SVG Version: 6.00 Build 0)  -->
<svg version="1.1" id="Layer_1" xmlns="http://www.w3.org/2000/svg" xmlns:xlink="http://www.w3.org/1999/xlink" x="0px" y="0px"
	 viewBox="0 0 571 441" style="enable-background:new 0 0 571 441;" xml:space="preserve">
<style type="text/css">
	.st0{enable-background:new    ;}
	.st1{fill:#FFFFFF;}
	.st2{fill:#406D9F;}
</style>
<g transform="translate(-0.449 -0.244)">
	<g transform="translate(0 0)">
		<rect x="0.4" y="0.2" width="571" height="441"/>
		<g class="st0">
			<path class="st1" d="M65.6,255.4c8.2-0.7,12.7,2.5,14.5,7.4c0.5,1.3,0.5,2.5-1.6,2.5c-8.2-0.2-26.4,4-36,6.4c-4,1-5.6,1-7.4-1.6
				c-1.5-2.1-3.5-5.1-4.3-7.1c-1.2-2.8-1.2-5.3,0.5-9.6c7.9-20.5,35.1-70.5,45.2-84.5c1.5-2,3-1.8,4,0.3c2,4.1,2.6,11.1-4.1,23.3
				c-8.6,15.7-23.6,41.1-35.8,67.5C49.9,257.5,59.3,255.9,65.6,255.4z"/>
			<path class="st1" d="M144.8,205.6c1.5-2.1,2.8-2.5,4-1c2.5,3,3.8,10.1-0.2,18.3c-3.6,7.4-11.9,19.8-15.8,28.5
				c-4.1,9.2-4.3,16.3,1.3,16c6.8-0.3,15.8-11.5,21.6-22.9c0.8-1.5,2-1.6,2.6-0.2c0.7,1.5,0.7,5.6-1.5,10.2
				c-4.3,9.1-14.7,18.1-23.8,17.7c-8.9-0.5-13.5-5.8-13.5-13.5c-5.3,6.8-12.7,12.9-20.6,12.9c-15.3,0-18.5-21-4.8-40.9
				c13.4-19.5,26.4-26.9,34.6-26.9c7.1,0,10.4,5.4,10.1,11.9C141,211.7,143,208.2,144.8,205.6z M131.6,212.3
				c-5.3-0.5-17.3,10.2-26.4,24.9c-8.7,14.2-10.9,28.7-4.5,28.9c6.8,0.2,15.3-10.4,23.8-24.9C134.9,223,136.4,212.8,131.6,212.3z"/>
			<path class="st1" d="M178,213.8c0.8-6.4,2.5-9.6,5.9-12.7c3.6-3.3,7.4-4,8.9-2.5c1.6,1.7,0.8,3.5-1.3,7.3c-0.7,1-1.2,2-1.8,3.1
				c-1.2,15.2,2,28,1.5,39.4c-0.3,6.4-1.5,13.4-7.4,17.3c11.1-4.1,18-14,22.1-22.9c0.8-1.8,2.5-1.3,3.1,0c0.7,1.5,0.5,5.8-2.3,10.9
				c-6.3,11.4-17.5,17.7-29.2,18.1c-9.6,0.3-18.8-2.1-24.4-12.4c-4-7.4-3.5-18.3,2.1-22.9c2-1.6,3.3-1,3.5,1.7
				c0.2,1.3,0.2,2.6,0.3,4C165.8,232.9,173.2,222.2,178,213.8z M160.5,251.1c2.5,9.6,7.3,16.3,12.7,14.7c7.6-2.3,5.1-28.2,4.5-41.4
				C172.9,233.1,166.7,242.2,160.5,251.1z"/>
			<path class="st1" d="M320.5,168.8c1.7-1.8,3.3-1.5,3.8,0.8c1.2,5.8-1,12.7-9.1,23.4c-11.7,15.5-37.9,47.8-57.3,77.9
				c-1.2,1.8-2.3,2.5-4.6,0.8c-6.1-4.6-8.7-10.6-7.4-22.1c2.8-25.6,11.1-64,17-79.9c1-2.5,2.1-2.8,3.6-1c3.8,4.5,4.5,10.6,1.6,23.3
				c-3.5,15.8-8.9,39.1-13,64.3C271,229.8,305.8,184.1,320.5,168.8z"/>
			<path class="st1" d="M316.9,267.1c13.7,0.7,25.7-12.5,32.8-23.4c0.8-1.3,2.1-1.3,2.8,0.2c0.7,1.3,0.2,5.9-2.8,10.2
				c-6.9,10.1-19.6,17.7-32.3,17.8c-21,0.3-28.2-20.3-17.5-41.6s27.6-29.9,35.8-25.1c4.1,2.5,7.1,5,9.7,8.6c3,4,1.7,14-5.3,22.4
				c-8.1,9.9-19.1,14.2-30.7,4.8C304.2,256.2,308.2,266.6,316.9,267.1z M330.6,229.2c5.3-6.9,8.9-15.5,6.6-17.3
				c-3.5-2.8-17.2,7.1-24.9,22.8c-0.5,1-1,2-1.3,2.8C319,242.5,325.8,235.4,330.6,229.2z"/>
			<path class="st1" d="M383.6,276c-9.1,22.1-20.8,48.3-34.2,53.6c-3.3,1.3-6.6,0.8-9.6-3.5c-3.5-5-6.4-10.7-3.3-20.5
				c4.8-14.8,19-24.9,35.3-31.2c1.7-3.6,3.1-7.6,4.8-11.4c-4.8,4.8-10.6,8.2-16.7,8.2c-15.2,0-18.1-20.6-4.8-40.4
				c12.9-19.1,26.2-26.6,34.6-26.6c6.6,0,9.9,5.1,9.7,10.9c2-3.3,3.8-6.3,5.4-9.1c1.3-2.3,3-2.5,4.1-1c2.5,3,3.8,10.1-0.3,18.1
				c-4.9,9.9-15.3,29.9-22.3,45.9c13.9-6.9,22.9-16,29.5-24.7c1-1.3,2.5-1.3,2.8,0.3c0.3,1.5-0.5,5.1-3.3,9.6
				C409.1,264.5,397.2,271.1,383.6,276z M343.1,320.4c2.1,3.1,15.2-14,25.9-39.1C347.6,293.8,340.3,316.4,343.1,320.4z M392.3,212.8
				c-5.1-0.3-17.2,10.2-26.2,24.6c-8.9,14.2-10.7,28.7-4.1,28.9c6.4,0.2,14.8-10.2,23.3-24.7C395.6,223.4,397.1,213.1,392.3,212.8z"
				/>
			<path class="st1" d="M472.7,205.6c1.5-2.1,2.8-2.5,4-1c2.5,3,3.8,10.1-0.2,18.3c-3.6,7.4-11.9,19.8-15.8,28.5
				c-4.1,9.2-4.3,16.3,1.3,16c6.8-0.3,15.8-11.5,21.6-22.9c0.8-1.5,2-1.6,2.6-0.2c0.7,1.5,0.7,5.6-1.5,10.2
				c-4.3,9.1-14.7,18.1-23.8,17.7c-8.9-0.5-13.5-5.8-13.5-13.5c-5.3,6.8-12.7,12.9-20.6,12.9c-15.3,0-18.5-21-4.8-40.9
				c13.4-19.5,26.4-26.9,34.6-26.9c7.1,0,10.4,5.4,10.1,11.9C468.9,211.7,470.8,208.2,472.7,205.6z M459.5,212.3
				c-5.3-0.5-17.3,10.2-26.4,24.9c-8.7,14.2-10.9,28.7-4.5,28.9c6.8,0.2,15.3-10.4,23.8-24.9C462.8,223,464.2,212.8,459.5,212.3z"/>
			<path class="st1" d="M505.8,213.8c0.8-6.4,2.5-9.6,5.9-12.7c3.6-3.3,7.4-4,8.9-2.5c1.6,1.7,0.8,3.5-1.3,7.3c-0.7,1-1.2,2-1.8,3.1
				c-1.2,15.2,2,28,1.5,39.4c-0.3,6.4-1.5,13.4-7.4,17.3c11.1-4.1,18-14,22.1-22.9c0.8-1.8,2.5-1.3,3.1,0c0.7,1.5,0.5,5.8-2.3,10.9
				c-6.3,11.4-17.5,17.7-29.2,18.1c-9.6,0.3-18.8-2.1-24.4-12.4c-4-7.4-3.5-18.3,2.1-22.9c2-1.6,3.3-1,3.5,1.7
				c0.2,1.3,0.2,2.6,0.3,4C493.6,232.9,501,222.2,505.8,213.8z M488.3,251.1c2.5,9.6,7.3,16.3,12.7,14.7c7.6-2.3,5.1-28.2,4.5-41.4
				C500.7,233.1,494.6,242.2,488.3,251.1z"/>
		</g>
		<g class="st0">
			<path class="st2" d="M52.6,223.4c8.2-0.7,12.7,2.5,14.5,7.4c0.5,1.3,0.5,2.5-1.6,2.5c-8.2-0.2-26.4,4-36,6.4c-4,1-5.6,1-7.4-1.6
				c-1.5-2.1-3.5-5.1-4.3-7.1c-1.2-2.8-1.2-5.3,0.5-9.6c7.9-20.5,35.1-70.5,45.2-84.5c1.5-2,3-1.8,4,0.3c2,4.1,2.6,11.1-4.1,23.3
				c-8.6,15.7-23.6,41.1-35.8,67.5C36.9,225.5,46.3,223.9,52.6,223.4z"/>
			<path class="st2" d="M131.8,173.6c1.5-2.1,2.8-2.5,4-1c2.5,3,3.8,10.1-0.2,18.3c-3.6,7.4-11.9,19.8-15.8,28.5
				c-4.1,9.2-4.3,16.3,1.3,16c6.8-0.3,15.8-11.5,21.6-22.9c0.8-1.5,2-1.6,2.6-0.2c0.7,1.5,0.7,5.6-1.5,10.2
				c-4.3,9.1-14.7,18.1-23.8,17.7c-8.9-0.5-13.5-5.8-13.5-13.5c-5.3,6.8-12.7,12.9-20.6,12.9c-15.3,0-18.5-21-4.8-40.9
				c13.4-19.5,26.4-26.9,34.6-26.9c7.1,0,10.4,5.4,10.1,11.9C128,179.7,130,176.2,131.8,173.6z M118.6,180.3
				c-5.3-0.5-17.3,10.2-26.4,24.9c-8.7,14.2-10.9,28.7-4.5,28.9c6.8,0.2,15.3-10.4,23.8-24.9C121.9,191,123.4,180.8,118.6,180.3z"/>
			<path class="st2" d="M165,181.8c0.8-6.4,2.5-9.6,5.9-12.7c3.6-3.3,7.4-4,8.9-2.5c1.6,1.7,0.8,3.5-1.3,7.3c-0.7,1-1.2,2-1.8,3.1
				c-1.2,15.2,2,28,1.5,39.4c-0.3,6.4-1.5,13.4-7.4,17.3c11.1-4.1,18-14,22.1-22.9c0.8-1.8,2.5-1.3,3.1,0c0.7,1.5,0.5,5.8-2.3,10.9
				c-6.3,11.4-17.5,17.7-29.2,18.1c-9.6,0.3-18.8-2.1-24.4-12.4c-4-7.4-3.5-18.3,2.1-22.9c2-1.6,3.3-1,3.5,1.7
				c0.2,1.3,0.2,2.6,0.3,4C152.8,200.9,160.2,190.2,165,181.8z M147.5,219.1c2.5,9.6,7.3,16.3,12.7,14.7c7.6-2.3,5.1-28.2,4.5-41.4
				C159.9,201.1,153.7,210.2,147.5,219.1z"/>
			<path class="st2" d="M307.5,136.8c1.7-1.8,3.3-1.5,3.8,0.8c1.2,5.8-1,12.7-9.1,23.4c-11.7,15.5-37.9,47.8-57.3,77.9
				c-1.2,1.8-2.3,2.5-4.6,0.8c-6.1-4.6-8.7-10.6-7.4-22.1c2.8-25.6,11.1-64,17-79.9c1-2.5,2.1-2.8,3.6-1c3.8,4.5,4.5,10.6,1.6,23.3
				c-3.5,15.8-8.9,39.1-13,64.3C258,197.8,292.8,152.1,307.5,136.8z"/>
			<path class="st2" d="M303.9,235.1c13.7,0.7,25.7-12.5,32.8-23.4c0.8-1.3,2.1-1.3,2.8,0.2c0.7,1.3,0.2,5.9-2.8,10.2
				c-6.9,10.1-19.6,17.7-32.3,17.8c-21,0.3-28.2-20.3-17.5-41.6c10.7-21.3,27.6-29.9,35.8-25.1c4.1,2.5,7.1,5,9.7,8.6
				c3,4,1.7,14-5.3,22.4c-8.1,9.9-19.1,14.2-30.7,4.8C291.2,224.2,295.2,234.6,303.9,235.1z M317.6,197.2c5.3-6.9,8.9-15.5,6.6-17.3
				c-3.5-2.8-17.2,7.1-24.9,22.8c-0.5,1-1,2-1.3,2.8C306,210.5,312.8,203.4,317.6,197.2z"/>
			<path class="st2" d="M370.6,244c-9.1,22.1-20.8,48.3-34.2,53.6c-3.3,1.3-6.6,0.8-9.6-3.5c-3.5-5-6.4-10.7-3.3-20.5
				c4.8-14.8,19-24.9,35.3-31.2c1.7-3.6,3.1-7.6,4.8-11.4c-4.8,4.8-10.6,8.2-16.7,8.2c-15.2,0-18.1-20.6-4.8-40.4
				c12.9-19.1,26.2-26.6,34.6-26.6c6.6,0,9.9,5.1,9.7,10.9c2-3.3,3.8-6.3,5.4-9.1c1.3-2.3,3-2.5,4.1-1c2.5,3,3.8,10.1-0.3,18.1
				c-4.9,9.9-15.3,29.9-22.3,45.9c13.9-6.9,22.9-16,29.5-24.7c1-1.3,2.5-1.3,2.8,0.3c0.3,1.5-0.5,5.1-3.3,9.6
				C396.1,232.5,384.2,239.1,370.6,244z M330.1,288.4c2.1,3.1,15.2-14,25.9-39.1C334.6,261.8,327.3,284.4,330.1,288.4z M379.3,180.8
				c-5.1-0.3-17.2,10.2-26.2,24.6c-8.9,14.2-10.7,28.7-4.1,28.9c6.4,0.2,14.8-10.2,23.3-24.7C382.6,191.4,384.1,181.1,379.3,180.8z"
				/>
			<path class="st2" d="M459.7,173.6c1.5-2.1,2.8-2.5,4-1c2.5,3,3.8,10.1-0.2,18.3c-3.6,7.4-11.9,19.8-15.8,28.5
				c-4.1,9.2-4.3,16.3,1.3,16c6.8-0.3,15.8-11.5,21.6-22.9c0.8-1.5,2-1.6,2.6-0.2c0.7,1.5,0.7,5.6-1.5,10.2
				c-4.3,9.1-14.7,18.1-23.8,17.7c-8.9-0.5-13.5-5.8-13.5-13.5c-5.3,6.8-12.7,12.9-20.6,12.9c-15.3,0-18.5-21-4.8-40.9
				c13.4-19.5,26.4-26.9,34.6-26.9c7.1,0,10.4,5.4,10.1,11.9C455.9,179.7,457.8,176.2,459.7,173.6z M446.5,180.3
				c-5.3-0.5-17.3,10.2-26.4,24.9c-8.7,14.2-10.9,28.7-4.5,28.9c6.8,0.2,15.3-10.4,23.8-24.9C449.8,191,451.2,180.8,446.5,180.3z"/>
			<path class="st2" d="M492.8,181.8c0.8-6.4,2.5-9.6,5.9-12.7c3.6-3.3,7.4-4,8.9-2.5c1.6,1.7,0.8,3.5-1.3,7.3c-0.7,1-1.2,2-1.8,3.1
				c-1.2,15.2,2,28,1.5,39.4c-0.3,6.4-1.5,13.4-7.4,17.3c11.1-4.1,18-14,22.1-22.9c0.8-1.8,2.5-1.3,3.1,0c0.7,1.5,0.5,5.8-2.3,10.9
				c-6.3,11.4-17.5,17.7-29.2,18.1c-9.6,0.3-18.8-2.1-24.4-12.4c-4-7.4-3.5-18.3,2.1-22.9c2-1.6,3.3-1,3.5,1.7
				c0.2,1.3,0.2,2.6,0.3,4C480.6,200.9,488,190.2,492.8,181.8z M475.3,219.1c2.5,9.6,7.3,16.3,12.7,14.7c7.6-2.3,5.1-28.2,4.5-41.4
				C487.7,201.1,481.6,210.2,475.3,219.1z"/>
		</g>
	</g>
</g>
</svg>
