<?xml version="1.0" encoding="utf-8"?>
<!-- Generator: Adobe Illustrator 24.2.3, SVG Export Plug-In . SVG Version: 6.00 Build 0)  -->
<svg version="1.1" id="Layer_1" xmlns="http://www.w3.org/2000/svg" xmlns:xlink="http://www.w3.org/1999/xlink" x="0px" y="0px"
	 viewBox="0 0 573 442" style="enable-background:new 0 0 573 442;" xml:space="preserve">
<style type="text/css">
	.st0{fill:#406D9F;}
	.st1{enable-background:new    ;}
	.st2{fill:#FFFFFF;}
</style>
<g transform="translate(0.135)">
	<rect x="-0.1" class="st0" width="573" height="442"/>
	<g transform="translate(1)">
		<g class="st1">
			<path class="st2" d="M78.2,260.1c8.3-0.7,12.8,2.5,14.6,7.5c0.5,1.3,0.5,2.5-1.7,2.5c-8.3-0.2-26.6,4-36.2,6.5
				c-4,1-5.6,1-7.5-1.7c-1.5-2.2-3.5-5.1-4.3-7.1c-1.2-2.8-1.2-5.3,0.5-9.6c8-20.6,35.4-70.9,45.5-85c1.5-2,3-1.8,4,0.3
				c2,4.2,2.7,11.1-4.1,23.4c-8.6,15.8-23.7,41.3-36,67.9C62.5,262.2,71.9,260.6,78.2,260.1z"/>
			<path class="st2" d="M149.8,240.5c-3.5,14.1-13.9,30.9-26.2,35c-6,2-14.3,1.3-20.9-7.3c-7.3-9.6-4.8-24.1,2.7-37.4
				c6.3-11.3,16.4-20.9,26.4-21.6c5.1-0.3,8,1.2,11.3,5.6c3.8,5.1,8.8,6.3,7.8,18.3c-0.2,1.3-0.2,2.5-0.3,3.8c1,0,2-0.3,3.3-0.3
				c1.2,0,1.2,0.8,0.5,1.7C153.1,239.6,151.4,240.3,149.8,240.5z M135.7,236.3c-3.5-2.7-7.5-8.5-7.6-14.6
				c-4.5,3.8-9.3,9.3-12.8,15.6c-7,12.6-9.5,27.9-5.1,31.5c4.6,3.8,14.8-2,22.9-17.3c2.5-4.6,4.5-9.3,5.8-13.3
				C137.7,237.8,136.7,237.1,135.7,236.3z M141.3,221.5c-0.8-5.3-4.1-4.3-5,0.5c-0.8,4.5,1,9.3,3.7,11.8
				C141.3,228.7,141.8,224.5,141.3,221.5z"/>
			<path class="st2" d="M178.2,218.2c0.8-6.5,2.5-9.6,6-12.8c3.7-3.3,7.5-4,9-2.5c1.7,1.7,0.8,3.5-1.3,7.3c-0.7,1-1.2,2-1.8,3.2
				c-1.2,15.3,2,28.2,1.5,39.7c-0.3,6.5-1.5,13.4-7.5,17.4c11.1-4.1,18.1-14.1,22.2-23.1c0.8-1.8,2.5-1.3,3.2,0
				c0.7,1.5,0.5,5.8-2.3,11c-6.3,11.5-17.6,17.8-29.4,18.3c-9.6,0.3-18.9-2.2-24.6-12.5c-4-7.5-3.5-18.4,2.2-23.1
				c2-1.7,3.3-1,3.5,1.7c0.2,1.3,0.2,2.7,0.3,4C165.9,237.5,173.3,226.7,178.2,218.2z M160.6,255.7c2.5,9.6,7.3,16.4,12.8,14.8
				c7.6-2.3,5.1-28.4,4.5-41.7C173,237.6,166.9,246.8,160.6,255.7z"/>
			<path class="st2" d="M307.1,240.1c4.2,11.1-6.5,23.6-13.4,28.6c-11.8,8.5-25.7,8.3-34.7,3.5c-7.5-4-13.9-14.3-14.3-27.9
				c-0.7-35.2,28.9-65.2,47.5-72.4c9-3.5,17.1-4.2,22.4,0.5c3.7,3.2,7.5,8,8.8,12.1c1.5,4.8,1,9.5-1.5,14.6
				c-2.5,5.1-4.8,11.6-6.6,16.4c-0.5,1.3-1.7,2.3-3.7,1c-3.8-2.5-6.5-7.6-4-15.9c2.7-8.8,8.6-18.3,4.8-22.2
				c-4.6-5-29.9,8.5-44.8,33.2c-14.6,24.2-12.9,48.8-4.8,55.4c10.6,8.6,28.2-2.5,40.8-27.2C304.5,238,306.3,238,307.1,240.1z"/>
			<path class="st2" d="M374.9,209.9c1.5-2.2,2.8-2.5,4-1c2.5,3,3.8,10.1-0.2,18.4c-3.7,7.5-12,19.9-15.9,28.7
				c-4.2,9.3-4.3,16.4,1.3,16.1c6.8-0.3,15.9-11.6,21.7-23.1c0.8-1.5,2-1.7,2.7-0.2s0.7,5.6-1.5,10.3c-4.3,9.1-14.8,18.3-23.9,17.8
				c-9-0.5-13.6-5.8-13.6-13.6c-5.3,6.8-12.8,12.9-20.8,12.9c-15.4,0-18.6-21.1-4.8-41.2c13.4-19.6,26.6-27.1,34.9-27.1
				c7.1,0,10.5,5.5,10.1,12C371,216.1,373,212.6,374.9,209.9z M361.6,216.7c-5.3-0.5-17.4,10.3-26.6,25.1c-8.8,14.3-11,28.9-4.5,29
				c6.8,0.2,15.4-10.5,23.9-25.1C364.9,227.5,366.4,217.2,361.6,216.7z"/>
			<path class="st2" d="M406.7,275.8c-8.8,0-14.4-4.5-17.4-11.8c-1.5,3.5-3.3,7.5-4.8,11c-0.7,1.7-1.7,1.8-2.7,0.5
				c-2.5-3.3-4.2-8.1-0.8-18.3c4.5-13.8,37-75.2,48.5-91.1c1.5-2.2,2.8-2.2,4.1,0.2c2.5,4.6,2.5,12.1-4.3,24.6
				c-2.5,4.6-9.6,16.1-14.8,25.2c4.8-4.3,10-7,14.3-7c14.1,0,14.8,19.6,5.6,39.8C426.7,266.4,416.4,275.8,406.7,275.8z M414.2,222.5
				c-7.5,7.8-15.4,21.6-21.6,34.4c0.3,4.8,2.5,10.1,7,11.1c5.8,1.3,13.4-3.7,23.1-22.9c9.5-18.8,7.5-28.9,3.7-29.2
				C422.8,215.6,419.2,217.4,414.2,222.5z"/>
			<path class="st2" d="M493.4,240.5c-3.5,14.1-13.9,30.9-26.2,35c-6,2-14.3,1.3-20.9-7.3c-7.3-9.6-4.8-24.1,2.7-37.4
				c6.3-11.3,16.4-20.9,26.4-21.6c5.1-0.3,8,1.2,11.3,5.6c3.8,5.1,8.8,6.3,7.8,18.3c-0.2,1.3-0.2,2.5-0.3,3.8c1,0,2-0.3,3.3-0.3
				c1.2,0,1.2,0.8,0.5,1.7C496.7,239.6,495,240.3,493.4,240.5z M479.3,236.3c-3.5-2.7-7.5-8.5-7.6-14.6c-4.5,3.8-9.3,9.3-12.8,15.6
				c-7,12.6-9.5,27.9-5.1,31.5c4.6,3.8,14.8-2,22.9-17.3c2.5-4.6,4.5-9.3,5.8-13.3C481.3,237.8,480.3,237.1,479.3,236.3z
				 M484.9,221.5c-0.8-5.3-4.2-4.3-5,0.5c-0.8,4.5,1,9.3,3.7,11.8C484.9,228.7,485.4,224.5,484.9,221.5z"/>
			<path class="st2" d="M521.8,218.2c0.8-6.5,2.5-9.6,6-12.8c3.7-3.3,7.5-4,9-2.5c1.7,1.7,0.8,3.5-1.3,7.3c-0.7,1-1.2,2-1.8,3.2
				c-1.2,15.3,2,28.2,1.5,39.7c-0.3,6.5-1.5,13.4-7.5,17.4c11.1-4.1,18.1-14.1,22.2-23.1c0.8-1.8,2.5-1.3,3.2,0
				c0.7,1.5,0.5,5.8-2.3,11c-6.3,11.5-17.6,17.8-29.4,18.3c-9.6,0.3-18.9-2.2-24.6-12.5c-4-7.5-3.5-18.4,2.2-23.1
				c2-1.7,3.3-1,3.5,1.7c0.2,1.3,0.2,2.7,0.3,4C509.5,237.5,517,226.7,521.8,218.2z M504.2,255.7c2.5,9.6,7.3,16.4,12.8,14.8
				c7.6-2.3,5.1-28.4,4.5-41.7C516.6,237.6,510.5,246.8,504.2,255.7z"/>
		</g>
		<g class="st1">
			<path d="M54.2,237.1c8.3-0.7,12.8,2.5,14.6,7.5c0.5,1.3,0.5,2.5-1.7,2.5c-8.3-0.2-26.6,4-36.2,6.5c-4,1-5.6,1-7.5-1.7
				c-1.5-2.2-3.5-5.1-4.3-7.1c-1.2-2.8-1.2-5.3,0.5-9.6c8-20.6,35.4-70.9,45.5-85c1.5-2,3-1.8,4,0.3c2,4.2,2.7,11.1-4.1,23.4
				c-8.6,15.8-23.7,41.3-36,67.9C38.5,239.2,47.9,237.6,54.2,237.1z"/>
			<path d="M125.8,217.5c-3.5,14.1-13.9,30.9-26.2,35c-6,2-14.3,1.3-20.9-7.3c-7.3-9.6-4.8-24.1,2.7-37.4
				c6.3-11.3,16.4-20.9,26.4-21.6c5.1-0.3,8,1.2,11.3,5.6c3.8,5.1,8.8,6.3,7.8,18.3c-0.2,1.3-0.2,2.5-0.3,3.8c1,0,2-0.3,3.3-0.3
				c1.2,0,1.2,0.8,0.5,1.7C129.1,216.6,127.4,217.3,125.8,217.5z M111.7,213.3c-3.5-2.7-7.5-8.5-7.6-14.6
				c-4.5,3.8-9.3,9.3-12.8,15.6c-7,12.6-9.5,27.9-5.1,31.5c4.6,3.8,14.8-2,22.9-17.3c2.5-4.6,4.5-9.3,5.8-13.3
				C113.7,214.8,112.7,214.1,111.7,213.3z M117.3,198.5c-0.8-5.3-4.1-4.3-5,0.5c-0.8,4.5,1,9.3,3.7,11.8
				C117.3,205.7,117.8,201.5,117.3,198.5z"/>
			<path d="M154.2,195.2c0.8-6.5,2.5-9.6,6-12.8c3.7-3.3,7.5-4,9-2.5c1.7,1.7,0.8,3.5-1.3,7.3c-0.7,1-1.2,2-1.8,3.2
				c-1.2,15.3,2,28.2,1.5,39.7c-0.3,6.5-1.5,13.4-7.5,17.4c11.1-4.1,18.1-14.1,22.2-23.1c0.8-1.8,2.5-1.3,3.2,0
				c0.7,1.5,0.5,5.8-2.3,11c-6.3,11.5-17.6,17.8-29.4,18.3c-9.6,0.3-18.9-2.2-24.6-12.5c-4-7.5-3.5-18.4,2.2-23.1
				c2-1.7,3.3-1,3.5,1.7c0.2,1.3,0.2,2.7,0.3,4C141.9,214.5,149.3,203.7,154.2,195.2z M136.6,232.7c2.5,9.6,7.3,16.4,12.8,14.8
				c7.6-2.3,5.1-28.4,4.5-41.7C149,214.6,142.9,223.8,136.6,232.7z"/>
			<path d="M283.1,217.1c4.2,11.1-6.5,23.6-13.4,28.6c-11.8,8.5-25.7,8.3-34.7,3.5c-7.5-4-13.9-14.3-14.3-27.9
				c-0.7-35.2,28.9-65.2,47.5-72.4c9-3.5,17.1-4.2,22.4,0.5c3.7,3.2,7.5,8,8.8,12.1c1.5,4.8,1,9.5-1.5,14.6
				c-2.5,5.1-4.8,11.6-6.6,16.4c-0.5,1.3-1.7,2.3-3.7,1c-3.8-2.5-6.5-7.6-4-15.9c2.7-8.8,8.6-18.3,4.8-22.2
				c-4.6-5-29.9,8.5-44.8,33.2c-14.6,24.2-12.9,48.8-4.8,55.4c10.6,8.6,28.2-2.5,40.8-27.2C280.5,215,282.3,215,283.1,217.1z"/>
			<path d="M350.9,186.9c1.5-2.2,2.8-2.5,4-1c2.5,3,3.8,10.1-0.2,18.4c-3.7,7.5-12,19.9-15.9,28.7c-4.2,9.3-4.3,16.4,1.3,16.1
				c6.8-0.3,15.9-11.6,21.7-23.1c0.8-1.5,2-1.7,2.7-0.2s0.7,5.6-1.5,10.3c-4.3,9.1-14.8,18.3-23.9,17.8c-9-0.5-13.6-5.8-13.6-13.6
				c-5.3,6.8-12.8,12.9-20.8,12.9c-15.4,0-18.6-21.1-4.8-41.2c13.4-19.6,26.6-27.1,34.9-27.1c7.1,0,10.5,5.5,10.1,12
				C347,193.1,349,189.6,350.9,186.9z M337.6,193.7c-5.3-0.5-17.4,10.3-26.6,25.1c-8.8,14.3-11,28.9-4.5,29
				c6.8,0.2,15.4-10.5,23.9-25.1C340.9,204.5,342.4,194.2,337.6,193.7z"/>
			<path d="M382.7,252.8c-8.8,0-14.4-4.5-17.4-11.8c-1.5,3.5-3.3,7.5-4.8,11c-0.7,1.7-1.7,1.8-2.7,0.5c-2.5-3.3-4.2-8.1-0.8-18.3
				c4.5-13.8,37-75.2,48.5-91.1c1.5-2.2,2.8-2.2,4.1,0.2c2.5,4.6,2.5,12.1-4.3,24.6c-2.5,4.6-9.6,16.1-14.8,25.2
				c4.8-4.3,10-7,14.3-7c14.1,0,14.8,19.6,5.6,39.8C402.7,243.4,392.4,252.8,382.7,252.8z M390.2,199.5
				c-7.5,7.8-15.4,21.6-21.6,34.4c0.3,4.8,2.5,10.1,7,11.1c5.8,1.3,13.4-3.7,23.1-22.9c9.5-18.8,7.5-28.9,3.7-29.2
				C398.8,192.6,395.2,194.4,390.2,199.5z"/>
			<path d="M469.4,217.5c-3.5,14.1-13.9,30.9-26.2,35c-6,2-14.3,1.3-20.9-7.3c-7.3-9.6-4.8-24.1,2.7-37.4
				c6.3-11.3,16.4-20.9,26.4-21.6c5.1-0.3,8,1.2,11.3,5.6c3.8,5.1,8.8,6.3,7.8,18.3c-0.2,1.3-0.2,2.5-0.3,3.8c1,0,2-0.3,3.3-0.3
				c1.2,0,1.2,0.8,0.5,1.7C472.7,216.6,471,217.3,469.4,217.5z M455.3,213.3c-3.5-2.7-7.5-8.5-7.6-14.6c-4.5,3.8-9.3,9.3-12.8,15.6
				c-7,12.6-9.5,27.9-5.1,31.5c4.6,3.8,14.8-2,22.9-17.3c2.5-4.6,4.5-9.3,5.8-13.3C457.3,214.8,456.3,214.1,455.3,213.3z
				 M460.9,198.5c-0.8-5.3-4.2-4.3-5,0.5c-0.8,4.5,1,9.3,3.7,11.8C460.9,205.7,461.4,201.5,460.9,198.5z"/>
			<path d="M497.8,195.2c0.8-6.5,2.5-9.6,6-12.8c3.7-3.3,7.5-4,9-2.5c1.7,1.7,0.8,3.5-1.3,7.3c-0.7,1-1.2,2-1.8,3.2
				c-1.2,15.3,2,28.2,1.5,39.7c-0.3,6.5-1.5,13.4-7.5,17.4c11.1-4.1,18.1-14.1,22.2-23.1c0.8-1.8,2.5-1.3,3.2,0
				c0.7,1.5,0.5,5.8-2.3,11c-6.3,11.5-17.6,17.8-29.4,18.3c-9.6,0.3-18.9-2.2-24.6-12.5c-4-7.5-3.5-18.4,2.2-23.1
				c2-1.7,3.3-1,3.5,1.7c0.2,1.3,0.2,2.7,0.3,4C485.5,214.5,493,203.7,497.8,195.2z M480.2,232.7c2.5,9.6,7.3,16.4,12.8,14.8
				c7.6-2.3,5.1-28.4,4.5-41.7C492.6,214.6,486.5,223.8,480.2,232.7z"/>
		</g>
	</g>
</g>
</svg>
