<?xml version="1.0" encoding="utf-8"?>
<!-- Generator: Adobe Illustrator 24.2.3, SVG Export Plug-In . SVG Version: 6.00 Build 0)  -->
<svg version="1.1" id="Layer_1" xmlns="http://www.w3.org/2000/svg" xmlns:xlink="http://www.w3.org/1999/xlink" x="0px" y="0px"
	 viewBox="0 0 571 442" style="enable-background:new 0 0 571 442;" xml:space="preserve">
<style type="text/css">
	.st0{fill:#03B2E2;}
	.st1{enable-background:new    ;}
	.st2{fill:#FFFFFF;}
	.st3{fill:#406D9F;}
</style>
<g transform="translate(0 0.355)">
	<rect y="-0.4" class="st0" width="571" height="442"/>
	<g class="st1">
		<path class="st0" d="M98.5,236c4.1,11.1-6.4,23.4-13.4,28.4c-11.7,8.4-25.6,8.2-34.5,3.5c-7.4-4-13.9-14.2-14.2-27.7
			c-0.7-35,28.7-64.8,47.2-71.9c8.9-3.5,17-4.1,22.3,0.5c3.6,3.1,7.4,7.9,8.7,12c1.5,4.8,1,9.4-1.5,14.5c-2.5,5.1-4.8,11.5-6.6,16.3
			c-0.5,1.3-1.6,2.3-3.6,1c-3.8-2.5-6.4-7.6-4-15.8c2.6-8.7,8.6-18.1,4.8-22.1c-4.6-5-29.7,8.4-44.5,33
			c-14.5,24.1-12.9,48.5-4.8,55.1c10.6,8.6,28-2.5,40.6-27.1C95.8,233.8,97.7,233.8,98.5,236z"/>
		<path class="st0" d="M165.8,206c1.5-2.1,2.8-2.5,4-1c2.5,3,3.8,10.1-0.2,18.3c-3.6,7.4-11.9,19.8-15.8,28.5
			c-4.1,9.2-4.3,16.3,1.3,16c6.8-0.3,15.8-11.5,21.6-22.9c0.8-1.5,2-1.6,2.6-0.2c0.7,1.5,0.7,5.6-1.5,10.2
			c-4.3,9.1-14.7,18.1-23.8,17.7c-8.9-0.5-13.5-5.8-13.5-13.5c-5.3,6.8-12.7,12.9-20.6,12.9c-15.3,0-18.5-21-4.8-40.9
			c13.4-19.5,26.4-26.9,34.6-26.9c7.1,0,10.4,5.4,10.1,11.9C162,212.1,164,208.6,165.8,206z M152.6,212.7
			c-5.3-0.5-17.3,10.2-26.4,24.9c-8.7,14.2-10.9,28.7-4.5,28.9c6.8,0.2,15.3-10.4,23.8-24.9C155.9,223.4,157.4,213.2,152.6,212.7z"
			/>
		<path class="st0" d="M188.7,267.2c7.9,0.7,19.5-11.2,25.9-23.9c1.2-2.1,3-2.3,3.6,0c0.8,2.6,0.2,6.3-1.6,10.2
			c-2.3,4.9-14.4,18.6-27.6,18.3c-11.4-0.3-17.5-8.2-13.7-26.1c6.1-28.7,24.9-58.6,41.7-76.1c2.5-2.6,4.8-3,7.1-0.8
			c4.8,4.3,5.8,10.4,3.8,18.1c-5.1,20.3-23.6,40.1-38.3,49.7C183.1,252.8,181.3,266.5,188.7,267.2z M222.4,183.5
			c-2.1-1.3-14.4,17-25.7,38.1c-1.5,2.6-2.8,5.3-4,7.9C215.3,211.2,224.5,184.8,222.4,183.5z"/>
		<path class="st0" d="M211.8,248c4.1-12,15-31.5,21.1-40.1c1.5-2,2.6-2.5,4-1c2.5,2.6,3.8,9.7-0.2,18c-3.5,7.3-10.4,18.5-13.9,26.7
			c-4,9.6-3.6,16,1.6,15.7c7.4-0.3,16.5-11.2,21.4-22.6c0.8-1.5,2-1.3,2.6,0c1.3,2.6,0.8,6.1-1.2,10.2c-5,10.2-15.3,17.2-24.6,17.2
			C210.4,272.1,207.2,261.6,211.8,248z M248.6,205c-2.1,2.3-6.8,1.8-9.2-2.5c-2.6-4.5-1.8-9.4,0.8-12.2c2.6-2.8,7.4-0.8,9.6,3.6
			C251.9,198.2,250.8,202.7,248.6,205z"/>
		<path class="st0" d="M269.1,258.4c0,1.8-0.2,3.6-0.3,5.6c6.3-4.1,12.9-12.4,17.2-21c1-2,2.6-2.1,3.5,0.2c0.8,2.5-0.2,6.1-1.7,9.9
			c-1.7,4-9.9,13.7-19.8,17.2c-2.6,16.7-9.9,35-17.8,44.9c-5.6,6.9-9.7,7.6-14.7,3.3c-4.1-3.5-9.1-9.9-7.3-23.9
			c4.6-36.8,42.6-100,60.9-127.4c1.3-2,3.5-1.8,4.1,0.2c2,5.6,1.5,12.7-5.6,24.7c-6.8,11.2-18.1,29.9-27.1,47.2
			C266.8,241.3,269.3,247.5,269.1,258.4z M237.2,312c3.6,4.8,16-18,21.4-40.6c-4.8-0.5-8.1-2.6-10.1-6.6
			C239.4,286.8,233.5,307.3,237.2,312z M261.2,254.8c0.2-6.1-1.5-11.2-2.6-10.7c-1.6,0.7-3.1,9.4-3.3,13.2c-0.2,5.3,1.3,8.7,4.5,9.4
			C260.5,262.7,261,258.6,261.2,254.8z"/>
		<path class="st0" d="M368.6,272.6c-12.7-0.7-17.8-11.7-13.7-25.2c3.3-11.1,13.7-23.3,20.6-31.3c-7.4,4.8-14.7,6.4-20,6.4
			c-4.6,7.4-11.4,13-20.5,13.4c-3.3,14-13.5,31-25.7,35c-5.9,2-14.5,1.6-21-7.1c-7.1-9.7-4.6-24.1,2.5-37.1
			c6.3-11.4,16.7-20.6,26.6-21.4c5-0.5,7.6,1.2,11.1,5.6c4,5.1,8.7,6.1,7.9,18.1c0,0.8-0.3,1.6-0.3,2.6c4.6-0.8,9.4-4,12.9-10.2
			c-12.2-5.3,4-27.1,10.6-27.2c5.8-0.2,2.8,11.9-0.5,20.6c5.8-0.8,11.5-3.6,17.8-7.9c2.1-1.5,3.6-2,5-0.3c3,3.5,7.1,11.2,2.1,16.8
			c-7.8,8.7-15.7,20-18.6,28.7c-3.1,9.1-1.2,15.5,4.1,15.8c6.6,0.5,15-10.6,20.3-22.6c0.7-1.5,1.8-1.8,2.5-0.3
			c0.8,2,1.5,6.4-0.5,10.7C387.2,265.5,377.7,273.1,368.6,272.6z M313.6,217.5c-4.5,3.8-9.1,9.2-12.7,15.5
			c-7.1,12.5-9.4,27.6-5.1,31.3c4.3,3.8,14.5-2.1,22.8-17.2c2.6-4.9,4.6-9.4,5.8-13.5C317.9,230,313.8,223.4,313.6,217.5z
			 M326.7,217.3c-0.7-5.4-4.3-4.1-5,0.7c-0.5,4.1,1,8.2,4.1,10.9C326.8,224.1,327,220.1,326.7,217.3z"/>
		<path class="st0" d="M438.4,205c5.4,0.8,10.6,8.9,6.4,17.5c-3.5,7.3-11.5,19.5-15.3,28c-4.3,9.6-3.3,17.3,2.6,17
			c6.8-0.3,14.8-11.2,21.1-22.8c0.8-1.5,2-1.5,2.8-0.2c1.2,1.8,0.8,5.6-1.5,10.4c-4.5,9.2-14.8,17.7-24.4,17.7
			c-14,0-17.3-10.2-12.5-24.6c5.4-16.2,20-33.7,17-35c-1.7-0.7-11.2,4-21.8,15.5c-9.7,10.6-17,26.4-24.1,41.9
			c-0.7,1.5-1.7,2.1-3.1,0.7c-3.3-3.3-4.3-8.7-1.7-17c3.3-10.4,16-33.3,26.4-48.7c1.2-1.8,2.5-1.6,3.5,0c2.5,4.1,2.3,9.7,0.5,15.7
			C421.7,213.2,432.9,204.1,438.4,205z"/>
		<path class="st0" d="M451.6,248c4.1-12,15-31.5,21.1-40.1c1.5-2,2.6-2.5,4-1c2.5,2.6,3.8,9.7-0.2,18c-3.5,7.3-10.4,18.5-13.9,26.7
			c-4,9.6-3.6,16,1.6,15.7c7.4-0.3,16.5-11.2,21.4-22.6c0.8-1.5,2-1.3,2.6,0c1.3,2.6,0.8,6.1-1.2,10.2c-5,10.2-15.3,17.2-24.6,17.2
			C450.1,272.1,447,261.6,451.6,248z M488.4,205c-2.1,2.3-6.8,1.8-9.2-2.5c-2.6-4.5-1.8-9.4,0.8-12.2c2.6-2.8,7.4-0.8,9.6,3.6
			C491.7,198.2,490.5,202.7,488.4,205z"/>
		<path class="st0" d="M543,206c1.5-2.1,2.8-2.5,4-1c2.5,3,3.8,10.1-0.2,18.3c-3.6,7.4-11.9,19.8-15.8,28.5
			c-4.1,9.2-4.3,16.3,1.3,16c6.8-0.3,15.8-11.5,21.6-22.9c0.8-1.5,2-1.6,2.6-0.2c0.7,1.5,0.7,5.6-1.5,10.2
			c-4.3,9.1-14.7,18.1-23.8,17.7c-8.9-0.5-13.5-5.8-13.5-13.5c-5.3,6.8-12.7,12.9-20.6,12.9c-15.3,0-18.5-21-4.8-40.9
			c13.4-19.5,26.4-26.9,34.6-26.9c7.1,0,10.4,5.4,10.1,11.9C539.2,212.1,541.2,208.6,543,206z M529.8,212.7
			c-5.3-0.5-17.3,10.2-26.4,24.9c-8.7,14.2-10.9,28.7-4.5,28.9c6.8,0.2,15.3-10.4,23.8-24.9C533.1,223.4,534.6,213.2,529.8,212.7z"
			/>
	</g>
	<g class="st1">
		<path class="st0" d="M86.5,203c4.1,11.1-6.4,23.4-13.4,28.4c-11.7,8.4-25.6,8.2-34.5,3.5c-7.4-4-13.9-14.2-14.2-27.7
			c-0.7-35,28.7-64.8,47.2-71.9c8.9-3.5,17-4.1,22.3,0.5c3.6,3.1,7.4,7.9,8.7,12c1.5,4.8,1,9.4-1.5,14.5c-2.5,5.1-4.8,11.5-6.6,16.3
			c-0.5,1.3-1.6,2.3-3.6,1c-3.8-2.5-6.4-7.6-4-15.8c2.6-8.7,8.6-18.1,4.8-22.1c-4.6-5-29.7,8.4-44.5,33
			c-14.5,24.1-12.9,48.5-4.8,55.1c10.6,8.6,28-2.5,40.6-27.1C83.8,200.8,85.7,200.8,86.5,203z"/>
		<path class="st0" d="M153.8,173c1.5-2.1,2.8-2.5,4-1c2.5,3,3.8,10.1-0.2,18.3c-3.6,7.4-11.9,19.8-15.8,28.5
			c-4.1,9.2-4.3,16.3,1.3,16c6.8-0.3,15.8-11.5,21.6-22.9c0.8-1.5,2-1.6,2.6-0.2c0.7,1.5,0.7,5.6-1.5,10.2
			c-4.3,9.1-14.7,18.1-23.8,17.7c-8.9-0.5-13.5-5.8-13.5-13.5c-5.3,6.8-12.7,12.9-20.6,12.9c-15.3,0-18.5-21-4.8-40.9
			c13.4-19.5,26.4-26.9,34.6-26.9c7.1,0,10.4,5.4,10.1,11.9C150,179.1,152,175.6,153.8,173z M140.6,179.7
			c-5.3-0.5-17.3,10.2-26.4,24.9c-8.7,14.2-10.9,28.7-4.5,28.9c6.8,0.2,15.3-10.4,23.8-24.9C143.9,190.4,145.4,180.2,140.6,179.7z"
			/>
		<path class="st0" d="M176.7,234.2c7.9,0.7,19.5-11.2,25.9-23.9c1.2-2.1,3-2.3,3.6,0c0.8,2.6,0.2,6.3-1.6,10.2
			c-2.3,4.9-14.4,18.6-27.6,18.3c-11.4-0.3-17.5-8.2-13.7-26.1c6.1-28.7,24.9-58.6,41.7-76.1c2.5-2.6,4.8-3,7.1-0.8
			c4.8,4.3,5.8,10.4,3.8,18.1c-5.1,20.3-23.6,40.1-38.3,49.7C171.1,219.8,169.3,233.5,176.7,234.2z M210.4,150.5
			c-2.1-1.3-14.4,17-25.7,38.1c-1.5,2.6-2.8,5.3-4,7.9C203.3,178.2,212.5,151.8,210.4,150.5z"/>
		<path class="st0" d="M199.8,215c4.1-12,15-31.5,21.1-40.1c1.5-2,2.6-2.5,4-1c2.5,2.6,3.8,9.7-0.2,18c-3.5,7.3-10.4,18.5-13.9,26.7
			c-4,9.6-3.6,16,1.6,15.7c7.4-0.3,16.5-11.2,21.4-22.6c0.8-1.5,2-1.3,2.6,0c1.3,2.6,0.8,6.1-1.2,10.2c-5,10.2-15.3,17.2-24.6,17.2
			C198.4,239.1,195.2,228.6,199.8,215z M236.6,172c-2.1,2.3-6.8,1.8-9.2-2.5c-2.6-4.5-1.8-9.4,0.8-12.2c2.6-2.8,7.4-0.8,9.6,3.6
			C239.9,165.2,238.8,169.7,236.6,172z"/>
		<path class="st0" d="M257.1,225.4c0,1.8-0.2,3.6-0.3,5.6c6.3-4.1,12.9-12.4,17.2-21c1-2,2.6-2.1,3.5,0.2c0.8,2.5-0.2,6.1-1.6,9.9
			c-1.6,4-9.9,13.7-19.8,17.2c-2.6,16.7-9.9,35-17.8,44.9c-5.6,6.9-9.7,7.6-14.7,3.3c-4.1-3.5-9.1-9.9-7.3-23.9
			c4.6-36.8,42.6-100,60.9-127.4c1.3-2,3.5-1.8,4.1,0.2c2,5.6,1.5,12.7-5.6,24.7c-6.8,11.2-18.1,29.9-27.1,47.2
			C254.8,208.3,257.3,214.5,257.1,225.4z M225.2,279c3.6,4.8,16-18,21.4-40.6c-4.8-0.5-8.1-2.6-10.1-6.6
			C227.4,253.8,221.5,274.3,225.2,279z M249.2,221.8c0.2-6.1-1.5-11.2-2.6-10.7c-1.6,0.7-3.1,9.4-3.3,13.2c-0.2,5.3,1.3,8.7,4.5,9.4
			C248.5,229.7,249,225.6,249.2,221.8z"/>
		<path class="st0" d="M356.6,239.6c-12.7-0.7-17.8-11.7-13.7-25.2c3.3-11.1,13.7-23.3,20.6-31.3c-7.4,4.8-14.7,6.4-20,6.4
			c-4.6,7.4-11.4,13-20.5,13.4c-3.3,14-13.5,31-25.7,35c-5.9,2-14.5,1.6-21-7.1c-7.1-9.7-4.6-24.1,2.5-37.1
			c6.3-11.4,16.7-20.6,26.6-21.4c5-0.5,7.6,1.2,11.1,5.6c4,5.1,8.7,6.1,7.9,18.1c0,0.8-0.3,1.6-0.3,2.6c4.6-0.8,9.4-4,12.9-10.2
			c-12.2-5.3,4-27.1,10.6-27.2c5.8-0.2,2.8,11.9-0.5,20.6c5.8-0.8,11.5-3.6,17.8-7.9c2.1-1.5,3.6-2,5-0.3c3,3.5,7.1,11.2,2.1,16.8
			c-7.8,8.7-15.7,20-18.6,28.7c-3.1,9.1-1.2,15.5,4.1,15.8c6.6,0.5,15-10.6,20.3-22.6c0.7-1.5,1.8-1.8,2.5-0.3
			c0.8,2,1.5,6.4-0.5,10.7C375.2,232.5,365.7,240.1,356.6,239.6z M301.6,184.5c-4.5,3.8-9.1,9.2-12.7,15.5
			c-7.1,12.5-9.4,27.6-5.1,31.3c4.3,3.8,14.5-2.1,22.8-17.2c2.6-4.9,4.6-9.4,5.8-13.5C305.9,197,301.8,190.4,301.6,184.5z
			 M314.7,184.3c-0.7-5.4-4.3-4.1-5,0.7c-0.5,4.1,1,8.2,4.1,10.9C314.8,191.1,315,187.1,314.7,184.3z"/>
		<path class="st0" d="M426.4,172c5.4,0.8,10.6,8.9,6.4,17.5c-3.5,7.3-11.5,19.5-15.3,28c-4.3,9.6-3.3,17.3,2.6,17
			c6.8-0.3,14.8-11.2,21.1-22.8c0.8-1.5,2-1.5,2.8-0.2c1.2,1.8,0.8,5.6-1.5,10.4c-4.5,9.2-14.8,17.7-24.4,17.7
			c-14,0-17.3-10.2-12.5-24.6c5.4-16.2,20-33.7,17-35c-1.7-0.7-11.2,4-21.8,15.5c-9.7,10.6-17,26.4-24.1,41.9
			c-0.7,1.5-1.7,2.1-3.1,0.7c-3.3-3.3-4.3-8.7-1.7-17c3.3-10.4,16-33.3,26.4-48.7c1.2-1.8,2.5-1.6,3.5,0c2.5,4.1,2.3,9.7,0.5,15.7
			C409.7,180.2,420.9,171.1,426.4,172z"/>
		<path class="st0" d="M439.6,215c4.1-12,15-31.5,21.1-40.1c1.5-2,2.6-2.5,4-1c2.5,2.6,3.8,9.7-0.2,18c-3.5,7.3-10.4,18.5-13.9,26.7
			c-4,9.6-3.6,16,1.6,15.7c7.4-0.3,16.5-11.2,21.4-22.6c0.8-1.5,2-1.3,2.6,0c1.3,2.6,0.8,6.1-1.2,10.2c-5,10.2-15.3,17.2-24.6,17.2
			C438.1,239.1,435,228.6,439.6,215z M476.4,172c-2.1,2.3-6.8,1.8-9.2-2.5c-2.6-4.5-1.8-9.4,0.8-12.2c2.6-2.8,7.4-0.8,9.6,3.6
			C479.7,165.2,478.5,169.7,476.4,172z"/>
		<path class="st0" d="M531,173c1.5-2.1,2.8-2.5,4-1c2.5,3,3.8,10.1-0.2,18.3c-3.6,7.4-11.9,19.8-15.8,28.5
			c-4.1,9.2-4.3,16.3,1.3,16c6.8-0.3,15.8-11.5,21.6-22.9c0.8-1.5,2-1.6,2.6-0.2c0.7,1.5,0.7,5.6-1.5,10.2
			c-4.3,9.1-14.7,18.1-23.8,17.7c-8.9-0.5-13.5-5.8-13.5-13.5c-5.3,6.8-12.7,12.9-20.6,12.9c-15.3,0-18.5-21-4.8-40.9
			c13.4-19.5,26.4-26.9,34.6-26.9c7.1,0,10.4,5.4,10.1,11.9C527.2,179.1,529.2,175.6,531,173z M517.8,179.7
			c-5.3-0.5-17.3,10.2-26.4,24.9c-8.7,14.2-10.9,28.7-4.5,28.9c6.8,0.2,15.3-10.4,23.8-24.9C521.1,190.4,522.6,180.2,517.8,179.7z"
			/>
	</g>
	<g class="st1">
		<path class="st2" d="M140,250.3c-13.4,24.6-34.2,43.9-56.6,35.6c-13.5-5-18.8-17.3-18.8-30.9c0-35.1,30.9-65.7,49.5-72.3
			c9.6-3.3,17.8-1.5,22.4,3.3C157,195.1,152.4,227.6,140,250.3z M133.2,190.1c-8.1-3-29,8.2-44.5,32.3c-15.8,24.6-16.2,52.5-5,57.3
			c10.9,4.6,30.4-8.6,44.2-34C143,218.2,142.3,193.4,133.2,190.1z"/>
		<path class="st2" d="M189.2,224.9c2-1.3,3.3-1.7,4.5-0.3c3.1,3.5,7.1,10.7,2.3,16.2c-7.4,8.4-15.5,18.8-18.1,27.4
			c-2.6,8.6-0.7,15,4.1,15.2c6.4,0.3,14.4-9.9,19.6-21.8c0.7-1.3,1.6-1.5,2.3-0.2c0.8,1.8,1,5.8-0.8,10.2
			c-3.8,9.6-13.4,16.5-22.1,16.2c-11.9-0.5-16.7-11.4-12.5-23.8c3.6-10.9,13.2-22.6,19.8-30.2c-7.3,4.8-14.4,6.3-19.3,6.3
			c-6.3,11.5-22.1,35-25.2,50c-0.3,1.5-1.3,2.3-2.8,0.8c-4.8-4.9-4.8-12.5-0.3-21c3.8-7.3,14.8-22.8,21-31.5
			c-9.4-6.1,4.9-25.6,11.1-25.7c5.1-0.2,3.8,9.4-0.3,19.8C177.5,231.8,183.1,229.2,189.2,224.9z"/>
		<path class="st2" d="M214.6,282.2c7.9,0.7,19.5-11.2,25.9-23.9c1.2-2.1,3-2.3,3.6,0c0.8,2.6,0.2,6.3-1.6,10.2
			c-2.3,4.9-14.4,18.6-27.6,18.3c-11.4-0.3-17.5-8.2-13.7-26.1c6.1-28.7,24.9-58.6,41.7-76.1c2.5-2.6,4.8-3,7.1-0.8
			c4.8,4.3,5.8,10.4,3.8,18.1c-5.1,20.3-23.6,40.1-38.3,49.7C209,267.8,207.2,281.5,214.6,282.2z M248.2,198.5
			c-2.1-1.3-14.4,17-25.7,38.1c-1.5,2.6-2.8,5.3-4,7.9C241.1,226.2,250.4,199.8,248.2,198.5z"/>
		<path class="st2" d="M296.7,221c1.5-2.1,2.8-2.5,4-1c2.5,3,3.8,10.1-0.2,18.3c-3.6,7.4-11.9,19.8-15.8,28.5
			c-4.1,9.2-4.3,16.3,1.3,16c6.8-0.3,15.8-11.5,21.6-22.9c0.8-1.5,2-1.6,2.6-0.2c0.7,1.5,0.7,5.6-1.5,10.2
			c-4.3,9.1-14.7,18.1-23.8,17.7c-8.9-0.5-13.5-5.8-13.5-13.5c-5.3,6.8-12.7,12.9-20.6,12.9c-15.3,0-18.5-21-4.8-40.9
			c13.4-19.5,26.4-26.9,34.6-26.9c7.1,0,10.4,5.4,10.1,11.9C293,227.1,294.9,223.6,296.7,221z M283.5,227.7
			c-5.3-0.5-17.3,10.2-26.4,24.9c-8.7,14.2-10.9,28.7-4.5,28.9c6.8,0.2,15.3-10.4,23.8-24.9C286.8,238.4,288.3,228.2,283.5,227.7z"
			/>
		<path class="st2" d="M355,220c5.4,0.8,10.6,8.9,6.4,17.5c-3.5,7.3-11.5,19.5-15.3,28c-4.3,9.6-3.3,17.3,2.6,17
			c6.8-0.3,14.8-11.2,21.1-22.8c0.8-1.5,2-1.5,2.8-0.2c1.2,1.8,0.8,5.6-1.5,10.4c-4.5,9.2-14.8,17.7-24.4,17.7
			c-14,0-17.3-10.2-12.5-24.6c5.4-16.2,20-33.7,17-35c-1.6-0.7-11.2,4-21.8,15.5c-9.7,10.6-17,26.4-24.1,41.9
			c-0.7,1.5-1.7,2.1-3.1,0.7c-3.3-3.3-4.3-8.7-1.7-17c3.3-10.4,16-33.3,26.4-48.7c1.2-1.8,2.5-1.6,3.5,0c2.5,4.1,2.3,9.7,0.5,15.7
			C338.3,228.2,349.5,219.1,355,220z"/>
		<path class="st2" d="M414.6,282.8c6.8-0.3,15.7-11.4,21.4-22.8c0.8-1.5,2-1.5,2.6-0.2c0.7,1.5,0.8,5.8-1.3,10.2
			c-4.5,9.1-14.7,17.8-23.8,17.3c-8.9-0.5-13.4-5.4-13.4-13.2c-5.3,6.6-12.7,12.7-20.5,12.7c-15.3,0-18.3-21-4.8-40.8
			c13-19.1,26.2-26.6,34.5-26.6c6.8,0,10.1,5.1,9.9,11.2c8.9-17,21.4-39.4,27.4-47.8c1.6-2.3,3.1-2.1,4,0c2.3,5.4,1.8,12.5-5.1,24.9
			c-7.9,14.2-23.8,41.4-32,58.9C409.1,276.4,408.9,283.2,414.6,282.8z M385.8,252.8c-8.9,14.2-10.7,28.5-4.3,28.7
			c6.6,0.2,15.5-9.6,23.3-24.6c9.6-18.3,12-28.7,7.3-28.9C407,227.9,394.9,238.3,385.8,252.8z"/>
		<path class="st2" d="M486,251.3c-3.5,14-13.9,30.7-26.1,34.8c-5.9,2-14.2,1.3-20.8-7.3c-7.3-9.6-4.8-23.9,2.6-37.1
			c6.3-11.2,16.3-20.8,26.2-21.4c5.1-0.3,7.9,1.2,11.2,5.6c3.8,5.1,8.7,6.3,7.8,18.1c-0.2,1.3-0.2,2.5-0.3,3.8c1,0,2-0.3,3.3-0.3
			c1.2,0,1.2,0.8,0.5,1.6C489.3,250.5,487.6,251.2,486,251.3z M472,247.2c-3.5-2.6-7.4-8.4-7.6-14.5c-4.5,3.8-9.2,9.2-12.7,15.5
			c-6.9,12.5-9.4,27.7-5.1,31.3c4.6,3.8,14.7-2,22.8-17.2c2.5-4.6,4.5-9.2,5.8-13.2C474,248.7,473,248,472,247.2z M477.6,232.5
			c-0.8-5.3-4.1-4.3-5,0.5c-0.8,4.5,1,9.2,3.6,11.7C477.6,239.6,478.1,235.5,477.6,232.5z"/>
	</g>
	<g class="st1">
		<path class="st3" d="M140,205.3c-13.4,24.6-34.2,43.9-56.6,35.6c-13.5-5-18.8-17.3-18.8-30.9c0-35.1,30.9-65.7,49.5-72.3
			c9.6-3.3,17.8-1.5,22.4,3.3C157,150.1,152.4,182.6,140,205.3z M133.2,145.1c-8.1-3-29,8.2-44.5,32.3c-15.8,24.6-16.2,52.5-5,57.3
			c10.9,4.6,30.4-8.6,44.2-34C143,173.2,142.3,148.4,133.2,145.1z"/>
		<path class="st3" d="M189.2,179.9c2-1.3,3.3-1.7,4.5-0.3c3.1,3.5,7.1,10.7,2.3,16.2c-7.4,8.4-15.5,18.8-18.1,27.4
			c-2.6,8.6-0.7,15,4.1,15.2c6.4,0.3,14.4-9.9,19.6-21.8c0.7-1.3,1.6-1.5,2.3-0.2c0.8,1.8,1,5.8-0.8,10.2
			c-3.8,9.6-13.4,16.5-22.1,16.2c-11.9-0.5-16.7-11.4-12.5-23.8c3.6-10.9,13.2-22.6,19.8-30.2c-7.3,4.8-14.4,6.3-19.3,6.3
			c-6.3,11.5-22.1,35-25.2,50c-0.3,1.5-1.3,2.3-2.8,0.8c-4.8-4.9-4.8-12.5-0.3-21c3.8-7.3,14.8-22.8,21-31.5
			c-9.4-6.1,4.9-25.6,11.1-25.7c5.1-0.2,3.8,9.4-0.3,19.8C177.5,186.8,183.1,184.2,189.2,179.9z"/>
		<path class="st3" d="M214.6,237.2c7.9,0.7,19.5-11.2,25.9-23.9c1.2-2.1,3-2.3,3.6,0c0.8,2.6,0.2,6.3-1.6,10.2
			c-2.3,4.9-14.4,18.6-27.6,18.3c-11.4-0.3-17.5-8.2-13.7-26.1c6.1-28.7,24.9-58.6,41.7-76.1c2.5-2.6,4.8-3,7.1-0.8
			c4.8,4.3,5.8,10.4,3.8,18.1c-5.1,20.3-23.6,40.1-38.3,49.7C209,222.8,207.2,236.5,214.6,237.2z M248.2,153.5
			c-2.1-1.3-14.4,17-25.7,38.1c-1.5,2.6-2.8,5.3-4,7.9C241.1,181.2,250.4,154.8,248.2,153.5z"/>
		<path class="st3" d="M296.7,176c1.5-2.1,2.8-2.5,4-1c2.5,3,3.8,10.1-0.2,18.3c-3.6,7.4-11.9,19.8-15.8,28.5
			c-4.1,9.2-4.3,16.3,1.3,16c6.8-0.3,15.8-11.5,21.6-22.9c0.8-1.5,2-1.6,2.6-0.2c0.7,1.5,0.7,5.6-1.5,10.2
			c-4.3,9.1-14.7,18.1-23.8,17.7c-8.9-0.5-13.5-5.8-13.5-13.5c-5.3,6.8-12.7,12.9-20.6,12.9c-15.3,0-18.5-21-4.8-40.9
			c13.4-19.5,26.4-26.9,34.6-26.9c7.1,0,10.4,5.4,10.1,11.9C293,182.1,294.9,178.6,296.7,176z M283.5,182.7
			c-5.3-0.5-17.3,10.2-26.4,24.9c-8.7,14.2-10.9,28.7-4.5,28.9c6.8,0.2,15.3-10.4,23.8-24.9C286.8,193.4,288.3,183.2,283.5,182.7z"
			/>
		<path class="st3" d="M355,175c5.4,0.8,10.6,8.9,6.4,17.5c-3.5,7.3-11.5,19.5-15.3,28c-4.3,9.6-3.3,17.3,2.6,17
			c6.8-0.3,14.8-11.2,21.1-22.8c0.8-1.5,2-1.5,2.8-0.2c1.2,1.8,0.8,5.6-1.5,10.4c-4.5,9.2-14.8,17.7-24.4,17.7
			c-14,0-17.3-10.2-12.5-24.6c5.4-16.2,20-33.7,17-35c-1.6-0.7-11.2,4-21.8,15.5c-9.7,10.6-17,26.4-24.1,41.9
			c-0.7,1.5-1.7,2.1-3.1,0.7c-3.3-3.3-4.3-8.7-1.7-17c3.3-10.4,16-33.3,26.4-48.7c1.2-1.8,2.5-1.6,3.5,0c2.5,4.1,2.3,9.7,0.5,15.7
			C338.3,183.2,349.5,174.1,355,175z"/>
		<path class="st3" d="M414.6,237.8c6.8-0.3,15.7-11.4,21.4-22.8c0.8-1.5,2-1.5,2.6-0.2c0.7,1.5,0.8,5.8-1.3,10.2
			c-4.5,9.1-14.7,17.8-23.8,17.3c-8.9-0.5-13.4-5.4-13.4-13.2c-5.3,6.6-12.7,12.7-20.5,12.7c-15.3,0-18.3-21-4.8-40.8
			c13-19.1,26.2-26.6,34.5-26.6c6.8,0,10.1,5.1,9.9,11.2c8.9-17,21.4-39.4,27.4-47.8c1.6-2.3,3.1-2.1,4,0c2.3,5.4,1.8,12.5-5.1,24.9
			c-7.9,14.2-23.8,41.4-32,58.9C409.1,231.4,408.9,238.2,414.6,237.8z M385.8,207.8c-8.9,14.2-10.7,28.5-4.3,28.7
			c6.6,0.2,15.5-9.6,23.3-24.6c9.6-18.3,12-28.7,7.3-28.9C407,182.9,394.9,193.3,385.8,207.8z"/>
		<path class="st3" d="M486,206.3c-3.5,14-13.9,30.7-26.1,34.8c-5.9,2-14.2,1.3-20.8-7.3c-7.3-9.6-4.8-23.9,2.6-37.1
			c6.3-11.2,16.3-20.8,26.2-21.4c5.1-0.3,7.9,1.2,11.2,5.6c3.8,5.1,8.7,6.3,7.8,18.1c-0.2,1.3-0.2,2.5-0.3,3.8c1,0,2-0.3,3.3-0.3
			c1.2,0,1.2,0.8,0.5,1.6C489.3,205.5,487.6,206.2,486,206.3z M472,202.2c-3.5-2.6-7.4-8.4-7.6-14.5c-4.5,3.8-9.2,9.2-12.7,15.5
			c-6.9,12.5-9.4,27.7-5.1,31.3c4.6,3.8,14.7-2,22.8-17.2c2.5-4.6,4.5-9.2,5.8-13.2C474,203.7,473,203,472,202.2z M477.6,187.5
			c-0.8-5.3-4.1-4.3-5,0.5c-0.8,4.5,1,9.2,3.6,11.7C477.6,194.6,478.1,190.5,477.6,187.5z"/>
	</g>
</g>
</svg>
