<?xml version="1.0" standalone="no"?>
<!DOCTYPE svg PUBLIC "-//W3C//DTD SVG 20010904//EN"
 "http://www.w3.org/TR/2001/REC-SVG-20010904/DTD/svg10.dtd">
<svg version="1.0" xmlns="http://www.w3.org/2000/svg"
 width="840.000000pt" height="593.000000pt" viewBox="0 0 840.000000 593.000000"
 preserveAspectRatio="xMidYMid meet">

<g transform="translate(0.000000,593.000000) scale(0.100000,-0.100000)"
fill="#000000" stroke="none">
<path d="M2070 5425 l0 -95 459 0 460 0 30 -37 c121 -147 235 -536 310 -1061
12 -79 21 -191 21 -250 0 -71 4 -112 12 -120 17 -17 28 -135 14 -144 -6 -4
-31 -8 -56 -8 -57 0 -203 -25 -300 -51 -745 -202 -1250 -919 -1182 -1681 14
-160 32 -249 79 -388 172 -509 601 -909 1117 -1041 140 -36 254 -50 410 -50
766 1 1415 530 1576 1286 28 129 38 388 20 518 -39 296 -147 555 -327 790
l-44 57 570 0 571 0 0 -714 0 -714 -52 -12 c-29 -7 -95 -32 -147 -57 -247
-118 -397 -394 -361 -666 29 -226 164 -418 363 -516 333 -163 722 -31 888 304
188 380 -31 837 -448 935 l-53 12 0 776 c0 721 -2 779 -18 798 -9 12 -27 27
-39 33 -15 8 -231 11 -743 11 l-721 0 -72 54 c-223 168 -493 277 -773 311 -48
6 -52 9 -58 37 -3 17 -6 39 -6 49 0 18 28 19 980 19 1049 0 1033 -1 1059 48
25 47 13 77 -138 328 -82 137 -159 258 -171 269 -22 20 -38 20 -920 23 l-898
2 -16 93 c-24 132 -89 387 -126 492 -67 192 -165 358 -247 421 l-38 29 -492 3
-493 3 0 -96z m3199 -1271 c44 -74 81 -140 81 -145 0 -5 -358 -9 -899 -9
l-898 0 -7 38 c-3 20 -6 85 -6 145 l0 107 824 0 823 0 82 -136z m-1709 -636
c933 -72 1540 -1032 1211 -1913 -106 -284 -331 -555 -591 -711 -325 -197 -724
-256 -1090 -163 -429 108 -793 425 -961 835 -234 573 -76 1226 393 1620 260
218 548 328 893 340 17 1 82 -3 145 -8z m2345 -2548 l95 0 0 279 0 279 38 -10
c68 -18 151 -70 207 -129 180 -188 176 -479 -7 -659 -189 -187 -494 -181 -672
11 -93 100 -130 195 -128 329 2 203 128 379 317 441 l50 16 3 -278 2 -279 95
0z"/>
<path d="M3291 3329 c-470 -55 -881 -399 -1025 -857 -195 -622 138 -1295 753
-1521 178 -66 429 -91 612 -62 450 73 832 396 977 826 83 245 83 534 1 779
-186 556 -733 903 -1318 835z m404 -214 c369 -94 653 -376 757 -753 18 -65 22
-105 22 -252 0 -150 -3 -187 -22 -257 -118 -435 -478 -743 -915 -782 -362 -32
-710 122 -928 412 -304 403 -272 969 76 1336 164 173 362 278 593 316 124 21
291 13 417 -20z"/>
</g>
</svg>
