<svg xmlns="http://www.w3.org/2000/svg" width="16.126" height="21.502" viewBox="0 0 16.126 21.502"><defs><style>.a{fill:#003b74;}</style></defs><path class="a" d="M14.111,6.719H2.016A2.016,2.016,0,0,0,0,8.735v9.407a2.016,2.016,0,0,0,2.016,2.016h.672v.672a.672.672,0,0,0,.672.672H4.7a.672.672,0,0,0,.672-.672v-.672h5.375v.672a.672.672,0,0,0,.672.672h1.344a.672.672,0,0,0,.672-.672v-.672h.672a2.016,2.016,0,0,0,2.016-2.016V8.735A2.016,2.016,0,0,0,14.111,6.719Zm-.672,9.071a.336.336,0,0,1-.336.336H3.024a.336.336,0,0,1-.336-.336v-.672a.336.336,0,0,1,.336-.336H13.1a.336.336,0,0,1,.336.336Zm0-4.032a.336.336,0,0,1-.336.336H3.024a.336.336,0,0,1-.336-.336v-.672a.336.336,0,0,1,.336-.336H13.1a.336.336,0,0,1,.336.336ZM6.047,2.016h4.032v3.36h2.016V2.016A2.016,2.016,0,0,0,10.079,0H6.047A2.016,2.016,0,0,0,4.032,2.016v3.36H6.047Z"/></svg>