<svg xmlns="http://www.w3.org/2000/svg" width="22.374" height="19.888" viewBox="0 0 22.374 19.888"><defs><style>.a{fill:#003b74;}</style></defs><path class="a" d="M22.788,6.255A1.857,1.857,0,0,0,21.023,5H7.35A1.869,1.869,0,0,0,5.585,6.255L3,13.7v9.944a1.247,1.247,0,0,0,1.243,1.243H5.486a1.247,1.247,0,0,0,1.243-1.243V22.4H21.645v1.243a1.247,1.247,0,0,0,1.243,1.243h1.243a1.247,1.247,0,0,0,1.243-1.243V13.7ZM7.35,18.673a1.864,1.864,0,1,1,1.864-1.864A1.862,1.862,0,0,1,7.35,18.673Zm13.673,0a1.864,1.864,0,1,1,1.864-1.864A1.862,1.862,0,0,1,21.023,18.673ZM5.486,12.458,7.35,6.864H21.023l1.864,5.593Z" transform="translate(-3 -5)"/></svg>