<svg xmlns="http://www.w3.org/2000/svg" width="21.077" height="21.077" viewBox="0 0 21.077 21.077"><defs><style>.a{fill:#003b74;}</style></defs><path class="a" d="M14.538,6.5a2.766,2.766,0,1,1-2.766,2.766A2.766,2.766,0,0,1,14.538,6.5m0,11.856c3.912,0,8.036,1.923,8.036,2.766v1.449H6.5V21.125c0-.843,4.123-2.766,8.036-2.766M14.538,4a5.269,5.269,0,1,0,5.269,5.269A5.268,5.268,0,0,0,14.538,4Zm0,11.856C11.021,15.856,4,17.621,4,21.125v3.952H25.077V21.125C25.077,17.621,18.056,15.856,14.538,15.856Z" transform="translate(-4 -4)"/></svg>