<svg xmlns="http://www.w3.org/2000/svg" width="25.418" height="17.793" viewBox="0 0 25.418 17.793"><defs><style>.a{fill:#003b74;}</style></defs><path class="a" d="M21.606,38.355H20.97l-4.32-5.4A2.543,2.543,0,0,0,14.665,32h-8.5a2.542,2.542,0,0,0-2.36,1.6l-1.9,4.847A2.536,2.536,0,0,0,0,40.9v4.448a.635.635,0,0,0,.635.635H2.542a3.813,3.813,0,1,0,7.626,0h5.084a3.813,3.813,0,0,0,7.626,0h1.906a.635.635,0,0,0,.635-.635V42.167A3.813,3.813,0,0,0,21.606,38.355ZM6.355,47.887A1.906,1.906,0,1,1,8.261,45.98,1.908,1.908,0,0,1,6.355,47.887Zm2.86-9.532H4.644l1.525-3.813H9.214Zm1.906,0V34.542h3.544l3.05,3.813Zm7.943,9.532A1.906,1.906,0,1,1,20.97,45.98,1.908,1.908,0,0,1,19.064,47.887Z" transform="translate(0 -32)"/></svg>