<svg xmlns="http://www.w3.org/2000/svg" width="24.033" height="17.009" viewBox="0 0 24.033 17.009"><defs><style>.a{fill:#003b74;}</style></defs><g transform="translate(0 0)"><path class="a" d="M23.895,10.97a.618.618,0,0,0-.477-.227H21.079a7.973,7.973,0,0,0-2.184-3.577c-2.957-1.945-10.8-1.945-13.756,0a8.013,8.013,0,0,0-2.184,3.577H.615a.616.616,0,0,0-.6.74l.346,1.679a.615.615,0,0,0,.6.49h.693a4.155,4.155,0,0,0-1,2.716,4.068,4.068,0,0,0,1.285,3.055c.009.008.018.014.027.022v2.349a.924.924,0,0,0,.923.923H5.05a.924.924,0,0,0,.923-.923v-.944H18.059v.944a.924.924,0,0,0,.923.923H21.14a.925.925,0,0,0,.923-.923v-2.3a4.222,4.222,0,0,0,.27-5.839h.739a.613.613,0,0,0,.6-.491l.347-1.678A.62.62,0,0,0,23.895,10.97ZM6.152,8.708c2.357-1.551,9.371-1.551,11.727,0a7.609,7.609,0,0,1,1.586,3H4.567A7.61,7.61,0,0,1,6.152,8.708ZM3.392,16.6a1.816,1.816,0,1,1,1.816,1.816A1.816,1.816,0,0,1,3.392,16.6Zm15.457,1.816A1.816,1.816,0,1,1,20.665,16.6,1.816,1.816,0,0,1,18.849,18.415Z" transform="translate(0 -5.707)"/></g></svg>