<?xml version="1.0" standalone="no"?>
<!DOCTYPE svg PUBLIC "-//W3C//DTD SVG 20010904//EN"
 "http://www.w3.org/TR/2001/REC-SVG-20010904/DTD/svg10.dtd">
<svg version="1.0" xmlns="http://www.w3.org/2000/svg"
 width="512.000000pt" height="512.000000pt" viewBox="0 0 512.000000 512.000000"
 preserveAspectRatio="xMidYMid meet">

<g transform="translate(0.000000,512.000000) scale(0.100000,-0.100000)"
fill="#000000" stroke="none">
<path d="M764 4506 l-34 -34 0 -745 0 -746 -56 -21 c-201 -75 -355 -254 -398
-463 -12 -56 -16 -136 -16 -297 l0 -220 -81 0 c-99 0 -145 -19 -165 -66 -21
-49 -20 -710 0 -759 22 -52 58 -65 181 -65 l105 0 0 -205 c0 -221 6 -257 51
-289 21 -14 67 -16 384 -16 317 0 363 2 384 16 45 32 51 68 51 289 l0 205
1390 0 1390 0 0 -205 c0 -221 6 -257 51 -289 21 -14 67 -16 384 -16 317 0 363
2 384 16 45 32 51 68 51 289 l0 205 105 0 c123 0 159 13 181 65 20 49 21 710
0 759 -20 47 -66 66 -165 66 l-81 0 0 220 c0 161 -4 241 -16 297 -26 129 -90
240 -192 335 -68 62 -125 98 -206 128 l-56 21 0 746 0 745 -34 34 -34 34
-1762 0 -1762 0 -34 -34z m3406 -846 l0 -660 -159 0 -160 0 -3 313 c-3 312 -3
313 -28 362 -33 65 -100 111 -173 120 -28 3 -227 5 -442 3 -377 -3 -391 -4
-430 -25 -46 -24 -75 -54 -101 -103 -17 -32 -19 -65 -22 -342 l-3 -308 -85 0
-84 0 0 291 c0 190 -4 305 -11 330 -16 50 -61 105 -112 132 -42 22 -47 22
-477 22 -430 0 -435 0 -477 -22 -51 -27 -96 -82 -112 -132 -7 -25 -11 -140
-11 -330 l0 -291 -165 0 -165 0 0 650 0 650 1610 0 1610 0 0 -660z m-1920
-360 l0 -280 -133 0 c-74 0 -242 -3 -375 -7 l-242 -6 0 286 0 287 375 0 375 0
0 -280z m1370 0 l0 -280 -147 0 c-82 0 -250 -3 -375 -7 l-228 -6 0 287 0 286
375 0 375 0 0 -280z m748 -547 c77 -31 153 -93 197 -158 62 -95 68 -123 73
-382 l4 -233 -2081 0 -2081 0 0 198 c0 108 4 224 10 256 26 160 164 304 320
335 25 5 810 8 1775 7 l1730 -1 53 -22z m532 -1223 l0 -220 -2340 0 -2340 0 0
220 0 220 2340 0 2340 0 0 -220z m-3952 -592 l-3 -143 -210 0 -210 0 -3 143
-3 142 216 0 216 0 -3 -142z m3650 0 l-3 -143 -210 0 -210 0 -3 143 -3 142
216 0 216 0 -3 -142z"/>
</g>
</svg>
