<?xml version="1.0" standalone="no"?>
<!DOCTYPE svg PUBLIC "-//W3C//DTD SVG 20010904//EN"
 "http://www.w3.org/TR/2001/REC-SVG-20010904/DTD/svg10.dtd">
<svg version="1.0" xmlns="http://www.w3.org/2000/svg"
 width="512.000000pt" height="512.000000pt" viewBox="0 0 512.000000 512.000000"
 preserveAspectRatio="xMidYMid meet">

<g transform="translate(0.000000,512.000000) scale(0.100000,-0.100000)"
fill="#000000" stroke="none">
<path d="M2330 5110 c-892 -87 -1668 -620 -2060 -1415 -126 -255 -196 -475
-242 -755 -31 -195 -31 -565 0 -760 46 -280 116 -500 242 -755 249 -504 651
-906 1155 -1155 255 -126 475 -196 755 -242 195 -31 554 -31 755 0 278 44 502
115 760 242 504 249 906 651 1155 1155 127 258 198 482 242 760 31 201 31 560
0 755 -46 280 -116 500 -242 755 -249 504 -651 906 -1155 1155 -254 126 -479
198 -750 240 -147 23 -475 34 -615 20z m530 -376 c232 -31 501 -116 710 -226
109 -57 296 -179 355 -231 l40 -36 -750 -750 -751 -751 -412 0 -412 0 2 -362
3 -363 43 -5 42 -5 -425 -425 -426 -425 -36 40 c-52 59 -174 247 -231 355
-110 208 -194 472 -227 715 -20 142 -22 427 -5 560 66 502 277 932 630 1285
493 493 1151 715 1850 624z m1477 -891 c265 -363 413 -822 413 -1282 0 -822
-448 -1565 -1172 -1945 -319 -168 -654 -248 -1023 -248 -353 1 -647 69 -960
222 -117 57 -289 162 -370 225 -19 15 6 41 570 605 l590 590 907 0 908 0 0
365 0 365 -547 0 -548 0 585 585 c322 322 588 585 592 585 3 0 28 -30 55 -67z"/>
<path d="M2423 4003 c-61 -18 -62 -11 15 -181 86 -188 90 -262 21 -356 -68
-93 -167 -134 -456 -191 -279 -55 -389 -100 -447 -184 -35 -50 -46 -92 -46
-172 0 -74 4 -79 68 -79 36 0 38 2 109 118 63 103 79 122 120 144 73 39 171
65 352 93 191 29 229 38 293 71 101 51 163 138 194 270 20 87 12 163 -27 264
-28 73 -114 211 -134 216 -6 1 -33 -5 -62 -13z"/>
<path d="M1970 3953 c-218 -21 -346 -106 -431 -287 -21 -46 -39 -89 -39 -95 0
-5 -16 -13 -35 -16 -19 -3 -50 -7 -69 -10 -59 -9 -153 -64 -200 -116 -112
-125 -128 -346 -38 -529 24 -48 31 -55 61 -58 40 -4 68 19 76 62 3 17 -1 80
-10 140 -19 134 -20 260 -2 274 6 5 74 31 149 56 76 25 149 53 163 62 32 21
56 68 80 154 28 103 49 138 93 149 336 92 315 85 335 126 l18 38 -27 28 c-28
29 -37 31 -124 22z"/>
<path d="M1100 2375 l0 -365 90 0 90 0 0 365 0 365 -90 0 -90 0 0 -365z"/>
<path d="M1370 2375 l0 -366 93 3 92 3 3 363 2 362 -95 0 -95 0 0 -365z"/>
</g>
</svg>
