<svg xmlns="http://www.w3.org/2000/svg" width="28.951" height="18.423" viewBox="0 0 28.951 18.423"><defs><style>.a{fill:#fff;opacity:0.629;}</style></defs><path class="a" d="M20.739,12.9a3.948,3.948,0,1,0-3.948-3.948A3.931,3.931,0,0,0,20.739,12.9Zm-10.528,0A3.948,3.948,0,1,0,6.264,8.948,3.931,3.931,0,0,0,10.212,12.9Zm0,2.632C7.146,15.528,1,17.067,1,20.134v3.29H19.423v-3.29C19.423,17.067,13.278,15.528,10.212,15.528Zm10.528,0c-.382,0-.816.026-1.276.066a5.553,5.553,0,0,1,2.592,4.54v3.29h7.9v-3.29C29.951,17.067,23.806,15.528,20.739,15.528Z" transform="translate(-1 -5)"/></svg>