<?xml version="1.0" standalone="no"?>
<!DOCTYPE svg PUBLIC "-//W3C//DTD SVG 20010904//EN"
 "http://www.w3.org/TR/2001/REC-SVG-20010904/DTD/svg10.dtd">
<svg version="1.0" xmlns="http://www.w3.org/2000/svg"
 width="512.000000pt" height="512.000000pt" viewBox="0 0 512.000000 512.000000"
 preserveAspectRatio="xMidYMid meet">

<g transform="translate(0.000000,512.000000) scale(0.100000,-0.100000)"
fill="#000000" stroke="none">
<path d="M2655 4866 c-101 -44 -125 -178 -46 -257 63 -63 152 -65 217 -4 l37
35 128 0 129 0 0 -520 0 -520 320 0 320 0 0 520 0 520 80 0 80 0 0 -600 0
-600 -320 0 -320 0 0 -80 0 -80 520 0 520 0 0 680 0 680 129 0 128 0 37 -35
c65 -61 154 -59 217 4 65 65 65 157 0 222 -63 63 -152 65 -217 4 l-37 -35
-859 0 -860 0 -19 24 c-40 51 -122 69 -184 42z"/>
<path d="M2025 3747 c-109 -37 -186 -103 -232 -202 -26 -55 -28 -71 -31 -202
l-4 -143 80 0 80 0 4 133 c3 125 5 136 30 174 41 62 90 88 168 88 78 0 127
-26 168 -88 l27 -41 3 -533 3 -533 80 0 80 0 -3 543 -3 542 -28 61 c-57 123
-177 204 -311 211 -41 1 -88 -3 -111 -10z"/>
<path d="M1065 3495 c-23 -22 -25 -32 -25 -120 l0 -95 -80 0 -80 0 0 -320 0
-320 -80 0 -80 0 0 -80 0 -80 400 0 400 0 0 80 0 80 -80 0 -80 0 0 320 0 320
-80 0 -80 0 0 40 0 40 80 0 80 0 0 80 0 80 -135 0 c-131 0 -137 -1 -160 -25z"/>
<path d="M2640 2720 l0 -80 40 0 40 0 0 -120 0 -120 80 0 80 0 0 120 0 120 40
0 40 0 0 80 0 80 -160 0 -160 0 0 -80z"/>
<path d="M345 2295 c-24 -23 -25 -31 -25 -135 0 -104 1 -112 25 -135 l24 -25
2191 0 2191 0 24 25 c24 23 25 31 25 135 0 104 -1 112 -25 135 l-24 25 -2191
0 -2191 0 -24 -25z"/>
<path d="M510 1831 c0 -6 70 -261 155 -568 165 -591 172 -612 244 -660 44 -29
93 -43 159 -43 l52 0 0 -120 0 -120 64 0 64 0 29 118 29 117 1254 0 1254 0 29
-117 29 -118 64 0 64 0 0 120 0 120 53 0 c65 0 114 14 158 43 72 48 79 69 244
660 85 307 155 562 155 568 0 5 -764 9 -2050 9 -1286 0 -2050 -4 -2050 -9z"/>
</g>
</svg>
