<svg xmlns="http://www.w3.org/2000/svg" width="24.741" height="25.453" viewBox="0 0 24.741 25.453"><defs><style>.a,.b{fill:#fff;stroke:#fff;}.b{stroke-width:0.5px;}</style></defs><g transform="translate(-1059.572 -1668.759)"><g transform="translate(1060.072 1669.283)"><path class="a" d="M1083.107,1693.713h-22.33a.654.654,0,0,1-.706-.585v-16.117a.558.558,0,0,1,.275-.464l11.165-7.142a.825.825,0,0,1,.862,0l11.164,7.142a.557.557,0,0,1,.275.464v16.117A.654.654,0,0,1,1083.107,1693.713Zm-21.624-1.171H1082.4V1677.3l-10.459-6.691-10.459,6.691Z" transform="translate(-1060.072 -1669.283)"/></g><g transform="translate(1063.903 1682.354)"><path class="b" d="M1073.27,1711.06h-7.113a.586.586,0,0,1-.585-.585v-7.113a.586.586,0,0,1,.585-.585h7.113a.586.586,0,0,1,.585.585v7.113A.586.586,0,0,1,1073.27,1711.06Zm-6.527-1.171h5.942v-5.942h-5.942Z" transform="translate(-1065.572 -1702.777)"/></g><g transform="translate(1067.023 1682.354)"><g transform="translate(0)"><path class="b" d="M1075.27,1711.06a.585.585,0,0,1-.585-.585v-7.113a.585.585,0,1,1,1.171,0v7.113A.586.586,0,0,1,1075.27,1711.06Z" transform="translate(-1074.685 -1702.777)"/></g></g><g transform="translate(1063.903 1685.91)"><g transform="translate(0 0)"><path class="b" d="M1073.27,1713.061h-7.113a.585.585,0,0,1,0-1.171h7.113a.585.585,0,1,1,0,1.171Z" transform="translate(-1065.572 -1711.89)"/></g></g></g></svg>