<?xml version="1.0" standalone="no"?>
<!DOCTYPE svg PUBLIC "-//W3C//DTD SVG 20010904//EN"
 "http://www.w3.org/TR/2001/REC-SVG-20010904/DTD/svg10.dtd">
<svg version="1.0" xmlns="http://www.w3.org/2000/svg"
 width="512.000000pt" height="512.000000pt" viewBox="0 0 512.000000 512.000000"
 preserveAspectRatio="xMidYMid meet">

<g transform="translate(0.000000,512.000000) scale(0.100000,-0.100000)"
fill="#000000" stroke="none">
<path d="M797 3393 c-4 -3 -7 -103 -7 -220 l0 -214 47 3 c46 3 47 4 55 41 18
86 77 160 158 196 39 18 66 21 191 21 137 0 148 -2 197 -26 77 -38 124 -104
146 -206 l6 -28 90 0 90 0 -2 218 -3 217 -481 3 c-264 1 -484 -1 -487 -5z"/>
<path d="M3270 3180 l0 -220 129 0 129 0 7 38 c17 92 68 167 137 203 32 16 59
19 185 19 126 0 155 -3 192 -20 91 -42 164 -124 180 -203 6 -30 10 -32 54 -35
l47 -3 -2 218 -3 218 -527 3 -528 2 0 -220z"/>
<path d="M1070 3111 c-54 -28 -93 -100 -98 -177 l-4 -64 266 0 266 0 0 55 c0
61 -19 117 -53 153 -42 46 -68 52 -209 52 -111 0 -139 -3 -168 -19z"/>
<path d="M3688 3107 c-40 -34 -61 -85 -66 -164 l-5 -73 267 0 266 0 0 48 c0
26 -9 65 -19 87 -19 43 -78 100 -118 116 -13 5 -86 9 -161 9 -127 0 -139 -2
-164 -23z"/>
<path d="M460 2589 c-179 -155 -341 -294 -360 -310 l-35 -29 625 2 624 3 178
250 c98 138 196 276 219 308 l40 57 -80 0 -81 0 0 -45 0 -45 -355 0 -355 0 0
45 0 45 -47 0 -48 -1 -325 -280z"/>
<path d="M2097 2740 c-48 -71 -87 -132 -87 -135 0 -3 246 -5 546 -5 491 0 546
2 540 16 -3 8 -47 69 -97 135 l-92 119 -362 0 -362 0 -86 -130z"/>
<path d="M3367 2841 c10 -15 108 -155 218 -310 l199 -281 620 0 621 0 -25 24
c-14 13 -175 153 -358 310 -297 255 -337 286 -368 286 -34 0 -34 0 -34 -45 l0
-45 -355 0 -355 0 0 45 0 45 -91 0 -91 0 19 -29z"/>
<path d="M1684 2625 c-45 -71 -125 -201 -178 -287 l-96 -157 2 -183 3 -183
178 311 178 310 -3 160 -3 159 -81 -130z"/>
<path d="M3270 2587 l0 -164 218 -304 217 -304 3 183 2 183 -147 192 c-81 106
-180 234 -220 285 l-73 94 0 -165z"/>
<path d="M2120 2340 l0 -181 88 3 87 3 3 43 3 42 259 0 259 0 3 -42 3 -43 88
-3 87 -3 0 181 0 180 -440 0 -440 0 0 -180z"/>
<path d="M0 1940 l0 -220 90 0 90 0 0 90 0 90 440 0 440 0 0 -90 0 -90 130 0
130 0 0 220 0 220 -660 0 -660 0 0 -220z"/>
<path d="M3800 1940 l0 -220 85 0 85 0 0 90 0 90 485 0 485 0 0 -90 0 -90 90
0 90 0 0 220 0 220 -660 0 -660 0 0 -220z"/>
</g>
</svg>
