<?xml version="1.0" standalone="no"?>
<!DOCTYPE svg PUBLIC "-//W3C//DTD SVG 20010904//EN"
 "http://www.w3.org/TR/2001/REC-SVG-20010904/DTD/svg10.dtd">
<svg version="1.0" xmlns="http://www.w3.org/2000/svg"
 width="200.000000pt" height="200.000000pt" viewBox="0 0 200.000000 200.000000"
 preserveAspectRatio="xMidYMid meet">

<g transform="translate(0.000000,200.000000) scale(0.100000,-0.100000)"
fill="#000000" stroke="none">
<path d="M102 1918 c-17 -17 -17 -1819 0 -1836 17 -17 1779 -17 1796 0 17 17
17 1819 0 1836 -17 17 -1779 17 -1796 0z m1748 -108 l0 -60 -850 0 -850 0 0
60 0 60 850 0 850 0 0 -60z m-1565 -232 c-12 -210 -55 -411 -110 -516 l-24
-47 -1 338 0 337 71 0 70 0 -6 -112z m314 65 c-25 -136 -80 -270 -162 -396
-59 -91 -172 -225 -210 -250 -25 -16 -25 -16 9 57 63 138 104 348 104 538 l0
98 134 0 133 0 -8 -47z m204 -30 c-31 -169 -96 -322 -183 -430 -68 -87 -201
-176 -295 -199 -28 -7 -27 -4 29 57 158 174 281 417 302 595 l7 54 77 0 78 0
-15 -77z m87 -703 l0 -780 -143 0 -143 0 -38 118 c-50 149 -117 310 -162 386
-35 59 -34 75 4 76 27 0 72 35 87 66 29 62 12 134 -40 168 l-26 17 57 35 c193
116 334 349 376 621 6 40 15 73 20 73 4 0 8 -351 8 -780z m160 0 l0 -780 -50
0 -50 0 0 780 0 780 50 0 50 0 0 -780z m80 753 c0 -16 9 -66 20 -113 62 -260
184 -446 364 -554 l57 -35 -26 -17 c-71 -46 -74 -157 -5 -211 8 -7 32 -18 53
-23 21 -6 37 -14 35 -18 -2 -4 -20 -36 -40 -72 -44 -78 -113 -247 -159 -387
l-33 -103 -143 0 -143 0 0 780 c0 513 3 780 10 780 6 0 10 -12 10 -27z m214
-27 c21 -178 144 -421 302 -595 56 -61 57 -64 29 -57 -115 29 -271 153 -350
281 -55 87 -106 227 -127 343 l-15 82 77 0 77 0 7 -54z m316 -52 c0 -190 44
-410 109 -543 38 -78 18 -70 -71 31 -165 186 -268 381 -297 565 l-8 53 134 0
133 0 0 -106z m190 -231 l-1 -338 -19 35 c-57 103 -102 313 -115 533 l-7 107
71 0 71 0 0 -337z m-1422 -463 c32 -30 30 -82 -4 -109 -24 -19 -40 -21 -150
-21 l-124 0 0 75 0 75 128 0 c115 0 130 -2 150 -20z m1422 -55 l0 -75 -124 0
c-110 0 -126 2 -150 21 -34 27 -36 79 -4 109 20 18 35 20 150 20 l128 0 0 -75z
m-1612 -207 c40 -96 68 -193 98 -336 34 -165 34 -162 -25 -162 l-48 0 -7 123
c-9 147 -31 322 -49 395 -8 28 -11 52 -6 52 4 0 21 -33 37 -72z m83 30 c56
-78 182 -371 214 -501 l7 -27 -60 0 -60 0 -12 82 c-19 121 -62 290 -102 396
-20 50 -31 92 -27 92 5 0 23 -19 40 -42z m1371 -50 c-40 -106 -83 -275 -102
-395 l-12 -83 -60 0 -60 0 7 27 c15 63 100 284 140 368 44 91 98 175 114 175
4 0 -7 -42 -27 -92z m88 -23 c-11 -59 -26 -186 -32 -281 l-12 -174 -48 0 c-41
0 -48 3 -48 19 0 36 40 230 66 318 27 94 84 237 91 230 2 -3 -5 -53 -17 -112z
m-1605 -86 c8 -57 17 -164 21 -236 l7 -133 -27 0 -26 0 0 242 c0 133 2 239 5
236 3 -2 12 -52 20 -109z m1675 -129 l0 -240 -27 0 -26 0 7 133 c3 72 13 177
21 232 8 55 15 103 15 108 0 4 2 7 5 7 3 0 5 -108 5 -240z"/>
</g>
</svg>
