<?xml version="1.0" encoding="utf-8"?>
<!-- Generator: Adobe Illustrator 24.2.3, SVG Export Plug-In . SVG Version: 6.00 Build 0)  -->
<svg version="1.1" id="Layer_1" xmlns="http://www.w3.org/2000/svg" xmlns:xlink="http://www.w3.org/1999/xlink" x="0px" y="0px"
	 viewBox="0 0 605 467" style="enable-background:new 0 0 605 467;" xml:space="preserve">
<style type="text/css">
	.st0{fill:#406D9F;}
	.st1{enable-background:new    ;}
	.st2{fill:#FFFFFF;}
</style>
<g transform="translate(21560 3936)">
	<rect x="-21560" y="-3936" class="st0" width="605" height="467"/>
	<g class="st1">
		<path class="st2" d="M-21491.1-3644.9c-0.5,1.8-1.8,2.1-3,0.7c-3-3.3-4.4-10.2-0.9-19.7c8.6-23.8,31.7-65.5,45.6-88.9
			c1.6-2.6,2.8-2.8,4.6-1.6c6.5,4.8,7.9,9.7,6,21.8c-2.8,16.7-4.6,38.7-5.8,63.4c12-27.1,32.2-63.9,45.4-84.3c1.4-2.1,3-1.6,4,0.4
			c2.6,5.3,2.5,12.3-5.5,25.5c-10.4,17.2-32.7,59.5-43.1,82.9c-0.7,1.8-1.6,2.1-3.5,1.1c-5.3-2.8-7.7-7-8.6-18.3
			c-0.9-10.7-0.2-34.5,3-59.5C-21466.1-3698.8-21484.1-3666.1-21491.1-3644.9z"/>
		<path class="st2" d="M-21391-3648.3c14.6,0.7,27.5-13.4,35-25c0.9-1.4,2.3-1.4,3,0.2c0.7,1.4,0.2,6.3-3,10.9
			c-7.4,10.7-20.9,18.8-34.5,19c-22.4,0.4-30.1-21.6-18.7-44.4c11.4-22.7,29.4-31.9,38.2-26.8c4.4,2.6,7.6,5.3,10.4,9.2
			c3.2,4.2,1.8,15-5.6,23.9c-8.6,10.6-20.4,15.1-32.7,5.1C-21404.5-3659.9-21400.3-3648.8-21391-3648.3z M-21376.4-3688.8
			c5.6-7.4,9.5-16.5,7-18.5c-3.7-3-18.3,7.6-26.6,24.3c-0.5,1.1-1.1,2.1-1.4,3C-21388.7-3674.5-21381.5-3682.1-21376.4-3688.8z"/>
		<path class="st2" d="M-21270.8-3715.9c2.3-0.4,3.3,2.3,2.6,6c-1.4,7-4.4,15-15.3,33.4c-12,20.1-24.5,33.6-36.3,33.3
			c-7.6-0.2-11.8-7-11.3-14.6c-5.6,7.2-13,14.3-21.5,13.7c-10.9-0.7-12.8-12.1-8.3-25.2c4-11.6,12.7-28.9,24.5-44.9
			c1.4-1.9,3.2-1.8,4.2-0.2c4.2,5.8,3.3,13.4-3.2,23.8c-6.3,10-10.9,18.3-14.4,26.8c-3.5,8.6-3.3,14.8,0.7,14.6
			c7-0.2,13.6-12,23.1-27.3c11.3-18,16.4-30.1,22.2-37.7c1.8-2.3,2.8-2.6,4.4-1.1c2.5,3.2,3.9,10.9-0.4,19.7
			c-3.9,7.9-12.7,21.3-17.1,30.6c-4.8,10-4.2,16,0.9,16.2c6.2,0.2,16.7-11.4,26.2-28C-21286.6-3703.6-21274.5-3715.2-21270.8-3715.9
			z"/>
		<path class="st2" d="M-21221.7-3644.2c-0.7,1.8-1.9,1.8-3.3,0.5c-2.6-2.3-4.4-8.4-1.8-17.6c1.9-6.3,6-15.7,10.9-25.5
			c0.4-21.5,1.8-48.4,5.1-65.1c0.5-2.8,2.1-3,3.7-1.9c4.2,2.6,6.9,7.7,6.2,20.4c-0.5,9.9-1.9,21.3-2.6,34.5
			c16.4-18.1,41.2-42.4,55.1-54.7c1.9-1.6,3.2-1.1,3.7,0.9c1.4,5.1-0.4,12.8-10.7,23.1c-12.7,12.3-27.8,25.7-49.5,49.1
			C-21212.3-3667.5-21218-3654.8-21221.7-3644.2z"/>
		<path class="st2" d="M-21092.7-3642.8c-13.6-0.7-19-12.5-14.6-26.9c3.5-11.8,14.6-24.8,22-33.4c-7.9,5.1-15.7,6.9-21.3,6.9
			c-4.9,7.9-12.1,13.9-21.8,14.3c-3.5,15-14.4,33.1-27.5,37.3c-6.3,2.1-15.5,1.8-22.4-7.6c-7.6-10.4-4.9-25.7,2.6-39.6
			c6.7-12.1,17.8-22,28.3-22.9c5.3-0.5,8.1,1.2,11.8,6c4.2,5.5,9.3,6.5,8.4,19.4c0,0.9-0.4,1.8-0.4,2.8c4.9-0.9,10-4.2,13.7-10.9
			c-13-5.6,4.2-28.9,11.3-29c6.2-0.2,3,12.7-0.5,22c6.2-0.9,12.3-3.9,19-8.4c2.3-1.6,3.9-2.1,5.3-0.4c3.2,3.7,7.6,12,2.3,18
			c-8.3,9.3-16.7,21.3-19.9,30.6c-3.3,9.7-1.2,16.5,4.4,16.9c7,0.5,16-11.3,21.6-24.1c0.7-1.6,1.9-1.9,2.6-0.4
			c0.9,2.1,1.6,6.9-0.5,11.4C-21072.8-3650.4-21083-3642.3-21092.7-3642.8z M-21151.3-3701.6c-4.8,4-9.7,9.9-13.6,16.5
			c-7.6,13.4-10,29.4-5.5,33.4s15.5-2.3,24.3-18.3c2.8-5.3,4.9-10,6.2-14.4C-21146.7-3688.2-21151.1-3695.3-21151.3-3701.6z
			 M-21137.4-3701.8c-0.7-5.8-4.6-4.4-5.3,0.7c-0.5,4.4,1.1,8.8,4.4,11.6C-21137.2-3694.6-21137-3698.8-21137.4-3701.8z"/>
		<path class="st2" d="M-21024.4-3717.1c6.7-2.3,10.9,0.4,14.4,7.7c3.3,6.9,2.8,14.3-3.7,20.6c-6,5.8-13.4,10.9-24.5,14.3
			c0.7,14.4,5.6,24.5,12.3,25.2c7.2,0.7,16.9-12.8,22.2-23.8c1.1-2.1,2.6-2.3,3.5-0.2c0.9,2.1,0.5,6.3-2.1,10.7
			c-4.2,7.4-12.3,18.7-26.2,18.5c-12.3-0.2-22.7-10.2-22.4-34c0-3.2,0.4-3.7,3.7-4.8c21.8-7.2,33.4-22.5,30.8-27.1
			c-1.9-3.2-9.7-1.2-19,6c-13.2,10-21.1,25.5-34.7,57.9c-0.5,1.4-1.9,1.8-3.2,0.4c-2.6-3-3.5-8.6-0.2-19.4
			c4.9-16,34.1-73.9,49.8-95.2c1.6-2.1,3.3-2.3,4.4-0.2c2.6,5.3,2.3,12.3-5.1,25.2c-4.2,7.2-11.1,19.5-15.8,28.2
			C-21034.4-3712.5-21029-3715.5-21024.4-3717.1z"/>
	</g>
	<g class="st1">
		<path d="M-21517.1-3669.9c-0.5,1.8-1.8,2.1-3,0.7c-3-3.3-4.4-10.2-0.9-19.7c8.6-23.8,31.7-65.5,45.6-88.9c1.6-2.6,2.8-2.8,4.6-1.6
			c6.5,4.8,7.9,9.7,6,21.8c-2.8,16.7-4.6,38.7-5.8,63.4c12-27.1,32.2-63.9,45.4-84.3c1.4-2.1,3-1.6,4,0.4c2.6,5.3,2.5,12.3-5.5,25.5
			c-10.4,17.2-32.7,59.5-43.1,82.9c-0.7,1.8-1.6,2.1-3.5,1.1c-5.3-2.8-7.7-7-8.6-18.3c-0.9-10.7-0.2-34.5,3-59.5
			C-21492.1-3723.8-21510.1-3691.1-21517.1-3669.9z"/>
		<path d="M-21417-3673.3c14.6,0.7,27.5-13.4,35-25c0.9-1.4,2.3-1.4,3,0.2c0.7,1.4,0.2,6.3-3,10.9c-7.4,10.7-20.9,18.8-34.5,19
			c-22.4,0.4-30.1-21.6-18.7-44.4c11.4-22.7,29.4-31.9,38.2-26.8c4.4,2.6,7.6,5.3,10.4,9.2c3.2,4.2,1.8,15-5.6,23.9
			c-8.6,10.6-20.4,15.1-32.7,5.1C-21430.5-3684.9-21426.3-3673.8-21417-3673.3z M-21402.4-3713.8c5.6-7.4,9.5-16.5,7-18.5
			c-3.7-3-18.3,7.6-26.6,24.3c-0.5,1.1-1.1,2.1-1.4,3C-21414.7-3699.5-21407.5-3707.1-21402.4-3713.8z"/>
		<path d="M-21296.8-3740.9c2.3-0.4,3.3,2.3,2.6,6c-1.4,7-4.4,15-15.3,33.4c-12,20.1-24.5,33.6-36.3,33.3c-7.6-0.2-11.8-7-11.3-14.6
			c-5.6,7.2-13,14.3-21.5,13.7c-10.9-0.7-12.8-12.1-8.3-25.2c4-11.6,12.7-28.9,24.5-44.9c1.4-1.9,3.2-1.8,4.2-0.2
			c4.2,5.8,3.3,13.4-3.2,23.8c-6.3,10-10.9,18.3-14.4,26.8c-3.5,8.6-3.3,14.8,0.7,14.6c7-0.2,13.6-12,23.1-27.3
			c11.3-18,16.4-30.1,22.2-37.7c1.8-2.3,2.8-2.6,4.4-1.1c2.5,3.2,3.9,10.9-0.4,19.7c-3.9,7.9-12.7,21.3-17.1,30.6
			c-4.8,10-4.2,16,0.9,16.2c6.2,0.2,16.7-11.4,26.2-28C-21312.6-3728.6-21300.5-3740.2-21296.8-3740.9z"/>
		<path d="M-21247.7-3669.2c-0.7,1.8-1.9,1.8-3.3,0.5c-2.6-2.3-4.4-8.4-1.8-17.6c1.9-6.3,6-15.7,10.9-25.5
			c0.4-21.5,1.8-48.4,5.1-65.1c0.5-2.8,2.1-3,3.7-1.9c4.2,2.6,6.9,7.7,6.2,20.4c-0.5,9.9-1.9,21.3-2.6,34.5
			c16.4-18.1,41.2-42.4,55.1-54.7c1.9-1.6,3.2-1.1,3.7,0.9c1.4,5.1-0.4,12.8-10.7,23.1c-12.7,12.3-27.8,25.7-49.5,49.1
			C-21238.3-3692.5-21244-3679.8-21247.7-3669.2z"/>
		<path d="M-21118.7-3667.8c-13.6-0.7-19-12.5-14.6-26.9c3.5-11.8,14.6-24.8,22-33.4c-7.9,5.1-15.7,6.9-21.3,6.9
			c-4.9,7.9-12.1,13.9-21.8,14.3c-3.5,15-14.4,33.1-27.5,37.3c-6.3,2.1-15.5,1.8-22.4-7.6c-7.6-10.4-4.9-25.7,2.6-39.6
			c6.7-12.1,17.8-22,28.3-22.9c5.3-0.5,8.1,1.2,11.8,6c4.2,5.5,9.3,6.5,8.4,19.4c0,0.9-0.4,1.8-0.4,2.8c4.9-0.9,10-4.2,13.7-10.9
			c-13-5.6,4.2-28.9,11.3-29c6.2-0.2,3,12.7-0.5,22c6.2-0.9,12.3-3.9,19-8.4c2.3-1.6,3.9-2.1,5.3-0.4c3.2,3.7,7.6,12,2.3,18
			c-8.3,9.3-16.7,21.3-19.9,30.6c-3.3,9.7-1.2,16.5,4.4,16.9c7,0.5,16-11.3,21.6-24.1c0.7-1.6,1.9-1.9,2.6-0.4
			c0.9,2.1,1.6,6.9-0.5,11.4C-21098.8-3675.4-21109-3667.3-21118.7-3667.8z M-21177.3-3726.6c-4.8,4-9.7,9.9-13.6,16.5
			c-7.6,13.4-10,29.4-5.5,33.4s15.5-2.3,24.3-18.3c2.8-5.3,4.9-10,6.2-14.4C-21172.7-3713.2-21177.1-3720.3-21177.3-3726.6z
			 M-21163.4-3726.8c-0.7-5.8-4.6-4.4-5.3,0.7c-0.5,4.4,1.1,8.8,4.4,11.6C-21163.2-3719.6-21163-3723.8-21163.4-3726.8z"/>
		<path d="M-21050.4-3742.1c6.7-2.3,10.9,0.4,14.4,7.7c3.3,6.9,2.8,14.3-3.7,20.6c-6,5.8-13.4,10.9-24.5,14.3
			c0.7,14.4,5.6,24.5,12.3,25.2c7.2,0.7,16.9-12.8,22.2-23.8c1.1-2.1,2.6-2.3,3.5-0.2c0.9,2.1,0.5,6.3-2.1,10.7
			c-4.2,7.4-12.3,18.7-26.2,18.5c-12.3-0.2-22.7-10.2-22.4-34c0-3.2,0.4-3.7,3.7-4.8c21.8-7.2,33.4-22.5,30.8-27.1
			c-1.9-3.2-9.7-1.2-19,6c-13.2,10-21.1,25.5-34.7,57.9c-0.5,1.4-1.9,1.8-3.2,0.4c-2.6-3-3.5-8.6-0.2-19.4
			c4.9-16,34.1-73.9,49.8-95.2c1.6-2.1,3.3-2.3,4.4-0.2c2.6,5.3,2.3,12.3-5.1,25.2c-4.2,7.2-11.1,19.5-15.8,28.2
			C-21060.4-3737.5-21055-3740.5-21050.4-3742.1z"/>
	</g>
</g>
</svg>
