<svg xmlns="http://www.w3.org/2000/svg" width="575.668" height="269.002" viewBox="0 0 575.668 269.002"><defs><style>.a{fill:#406d9f;}.b{fill:#0d0d0d;font-size:25px;}.b,.g{font-family:Montserrat-Bold, Montserrat;font-weight:700;}.c{fill:#565f73;font-family:Montserrat-Regular, Montserrat;}.c,.e{font-size:20px;}.d{fill:#f24820;}.e{fill:#6e6e6e;font-family:Montserrat-Light, Montserrat;font-weight:300;letter-spacing:0.001em;}.f{font-size:30px;}.g{fill:#e35d5d;font-size:23px;}</style></defs><g transform="translate(0)"><g transform="translate(0.04 189.362)"><rect class="a" width="6.211" height="31.985"/></g><g transform="translate(0.04 160.043)"><rect class="a" width="6.211" height="15.992"/></g><g transform="translate(0.04 182.369)"><rect class="a" width="6.211" height="31.985"/></g><g transform="translate(0.04 162.045)"><rect class="a" width="6.211" height="31.985"/></g><g transform="translate(0.04 154.339)"><rect class="a" width="6.211" height="15.992"/></g><g transform="translate(0.04 128.694)"><rect class="a" width="6.211" height="31.985"/></g><g transform="translate(0.04 108.37)"><rect class="a" width="6.211" height="31.985"/></g><g transform="translate(0.04 98.719)"><rect class="a" width="6.211" height="15.992"/></g><g transform="translate(0.04 75.018)"><rect class="a" width="6.211" height="31.985"/></g><g transform="translate(0.04 54.695)"><rect class="a" width="6.211" height="31.985"/></g><g transform="translate(0.04 93.07)"><rect class="a" width="6.211" height="15.992"/></g><g transform="translate(0.04 47.759)"><rect class="a" width="6.211" height="31.985"/></g><g transform="translate(30.613 0.062)"><rect class="a" width="19.887" height="9.618"/></g><g transform="translate(58.787 0.062)"><rect class="a" width="9.944" height="9.618"/></g><g transform="translate(77.017 0.062)"><rect class="a" width="19.887" height="9.618"/></g><g transform="translate(105.294 0.062)"><rect class="a" width="19.887" height="9.618"/></g><g transform="translate(133.468 0.062)"><rect class="a" width="9.944" height="9.618"/></g><g transform="translate(151.698 0.062)"><rect class="a" width="19.887" height="9.618"/></g><g transform="translate(179.975 0.062)"><rect class="a" width="19.887" height="9.618"/></g><g transform="translate(208.149 0.062)"><rect class="a" width="9.944" height="9.618"/></g><g transform="translate(226.379 0.062)"><rect class="a" width="19.887" height="9.618"/></g><g transform="translate(254.656 0.062)"><rect class="a" width="19.887" height="9.618"/></g><g transform="translate(282.83 0.062)"><rect class="a" width="9.944" height="9.618"/></g><g transform="translate(301.06 0.062)"><rect class="a" width="19.887" height="9.618"/></g><g transform="translate(329.337 0.062)"><rect class="a" width="19.887" height="9.618"/></g><g transform="translate(357.511 0.062)"><rect class="a" width="9.944" height="9.618"/></g><g transform="translate(375.741 0.062)"><rect class="a" width="19.887" height="9.618"/></g><g transform="translate(404.018 0.062)"><rect class="a" width="19.887" height="9.618"/></g><g transform="translate(432.192 0.062)"><rect class="a" width="9.944" height="9.618"/></g><g transform="translate(450.422 0.062)"><rect class="a" width="19.887" height="9.618"/></g><g transform="translate(478.699 0.062)"><rect class="a" width="19.887" height="9.618"/></g><g transform="translate(506.873 0.062)"><rect class="a" width="9.944" height="9.618"/></g><g transform="translate(525.103 0.062)"><rect class="a" width="19.887" height="9.618"/></g><g transform="translate(569.417 47.656)"><rect class="a" width="6.211" height="31.985"/></g><g transform="translate(569.417 92.967)"><rect class="a" width="6.211" height="15.992"/></g><g transform="translate(569.417 54.649)"><rect class="a" width="6.211" height="31.985"/></g><g transform="translate(569.417 74.972)"><rect class="a" width="6.211" height="31.985"/></g><g transform="translate(569.417 108.324)"><rect class="a" width="6.211" height="31.985"/></g><g transform="translate(569.417 128.647)"><rect class="a" width="6.211" height="31.985"/></g><g transform="translate(569.417 154.291)"><rect class="a" width="6.211" height="15.992"/></g><g transform="translate(569.417 161.999)"><rect class="a" width="6.211" height="31.985"/></g><g transform="translate(569.417 182.323)"><rect class="a" width="6.211" height="31.985"/></g><g transform="translate(569.417 159.939)"><rect class="a" width="6.211" height="15.992"/></g><g transform="translate(569.417 189.258)"><rect class="a" width="6.211" height="31.985"/></g><g transform="translate(525.167 259.322)"><rect class="a" width="19.887" height="9.618"/></g><g transform="translate(506.937 259.322)"><rect class="a" width="9.944" height="9.618"/></g><g transform="translate(478.764 259.322)"><rect class="a" width="19.887" height="9.618"/></g><g transform="translate(450.487 259.322)"><rect class="a" width="19.887" height="9.618"/></g><g transform="translate(432.256 259.322)"><rect class="a" width="9.944" height="9.618"/></g><g transform="translate(404.083 259.322)"><rect class="a" width="19.887" height="9.618"/></g><g transform="translate(375.805 259.322)"><rect class="a" width="19.887" height="9.618"/></g><g transform="translate(357.575 259.322)"><rect class="a" width="9.944" height="9.618"/></g><g transform="translate(329.402 259.322)"><rect class="a" width="19.887" height="9.618"/></g><g transform="translate(301.124 259.322)"><rect class="a" width="19.887" height="9.618"/></g><g transform="translate(282.894 259.322)"><rect class="a" width="9.944" height="9.618"/></g><g transform="translate(254.72 259.322)"><rect class="a" width="19.887" height="9.618"/></g><g transform="translate(226.443 259.322)"><rect class="a" width="19.887" height="9.618"/></g><g transform="translate(208.213 259.322)"><rect class="a" width="9.944" height="9.618"/></g><g transform="translate(180.039 259.322)"><rect class="a" width="19.887" height="9.618"/></g><g transform="translate(151.762 259.322)"><rect class="a" width="19.887" height="9.618"/></g><g transform="translate(133.532 259.322)"><rect class="a" width="9.944" height="9.618"/></g><g transform="translate(105.358 259.322)"><rect class="a" width="19.887" height="9.618"/></g><g transform="translate(77.081 259.322)"><rect class="a" width="19.887" height="9.618"/></g><g transform="translate(58.851 259.322)"><rect class="a" width="9.944" height="9.618"/></g><g transform="translate(30.677 259.322)"><rect class="a" width="19.887" height="9.618"/></g><path class="a" d="M-920.369,1101.413v-9.618h-22.563v34.791h6.232v-25.172Z" transform="translate(942.945 -1091.794)"/><path class="a" d="M-36,1126.757h6.211v-34.941H-52.259v9.651H-36Z" transform="translate(605.461 -1091.795)"/><path class="a" d="M-52.437,1665.476v9.618h22.563V1640.3h-6.232v25.173Z" transform="translate(605.529 -1406.092)"/><path class="a" d="M-936.743,1640.125h-6.211v34.941h22.466v-9.651h-16.255Z" transform="translate(942.954 -1406.086)"/><text class="b" transform="translate(30.113 64.646)"><tspan x="0" y="0">Cancún, México</tspan></text><g transform="translate(29.836 200.297)"><text class="c" transform="translate(0.277 17.35)"><tspan x="0" y="0">Ver fechas disponibles </tspan></text><g transform="translate(254.35 22.446) rotate(180)"><path class="d" d="M10.556.374h0a1.271,1.271,0,0,0-1.8,0L.3,8.831a1.013,1.013,0,0,0,0,1.435l8.457,8.457a1.271,1.271,0,0,0,1.8,0h0a1.271,1.271,0,0,0,0-1.8L3.188,9.543l7.378-7.378A1.268,1.268,0,0,0,10.556.374Z" transform="translate(0 0)"/></g></g><text class="e" transform="translate(30.113 88.646)"><tspan x="0" y="29">Aproveche las mejores ofertas.</tspan><tspan class="f" y="29"> </tspan><tspan class="g"><tspan x="0" y="69">Precio desde: $9,980.00 MXN</tspan></tspan></text></g></svg>